<svg width="125" height="48" viewBox="0 0 125 48" fill="none" xmlns="http://www.w3.org/2000/svg">
<mask id="path-1-inside-1_15_3" fill="white">
<path d="M17.7717 43.072C16.8152 43.072 16.1413 42.512 15.75 41.392C15.3587 40.304 15.163 39.024 15.163 37.552C15.163 36.24 15.2826 34.944 15.5217 33.664C15.7826 32.384 16.0869 31.408 16.4348 30.736C15.8478 31.76 15.1196 32.928 14.25 34.24C13.3804 35.552 12.4239 36.816 11.3804 38.032C10.3369 39.248 9.26086 40.256 8.15216 41.056C7.04347 41.856 5.94564 42.256 4.85868 42.256C3.4239 42.256 2.34781 41.584 1.63042 40.24C0.934771 38.896 0.586945 37.056 0.586945 34.72C0.586945 32.896 0.793466 30.944 1.20651 28.864C1.64129 26.752 2.27173 24.608 3.09781 22.432C3.48912 21.376 3.9239 20.336 4.40216 19.312C4.90216 18.256 5.43477 17.264 5.99999 16.336C5.32607 15.856 4.6739 15.328 4.04347 14.752C3.41303 14.144 2.90216 13.424 2.51086 12.592C2.11955 11.76 1.9239 10.768 1.9239 9.616C1.9239 9.008 2.01086 8.464 2.18477 7.984C2.38042 7.472 2.58694 7.216 2.80434 7.216C2.99999 7.216 3.09781 7.392 3.09781 7.744C3.09781 7.968 3.05434 8.208 2.96738 8.464C2.85868 8.88 2.80434 9.264 2.80434 9.616C2.80434 10.48 3.01086 11.296 3.4239 12.064C3.83694 12.8 4.33694 13.44 4.9239 13.984C5.51086 14.528 6.05434 14.96 6.55434 15.28C7.94564 13.04 9.46738 10.976 11.1196 9.088C12.7935 7.168 14.5869 5.632 16.5 4.48C18.413 3.328 20.4239 2.752 22.5326 2.752C24.2935 2.752 25.6739 3.328 26.6739 4.48C27.6739 5.6 28.1739 7.056 28.1739 8.848C28.1739 10.448 27.8587 11.824 27.2283 12.976C26.6196 14.096 25.8152 15.04 24.8152 15.808C23.8152 16.544 22.7282 17.136 21.5543 17.584C20.4022 18 19.2609 18.304 18.1304 18.496C17 18.656 16.0109 18.736 15.163 18.736C13.9239 18.736 12.7174 18.624 11.5435 18.4C10.3913 18.176 9.23912 17.824 8.08694 17.344C7.52173 18.528 6.90216 19.904 6.22825 21.472C5.57607 23.008 4.94564 24.64 4.33694 26.368C3.74999 28.064 3.26086 29.76 2.86955 31.456C2.49999 33.12 2.31521 34.672 2.31521 36.112C2.31521 37.68 2.56521 38.864 3.06521 39.664C3.56521 40.432 4.23912 40.816 5.08694 40.816C6.10868 40.816 7.18477 40.368 8.3152 39.472C9.46738 38.544 10.6196 37.344 11.7717 35.872C12.9239 34.4 14.0217 32.8 15.0652 31.072C16.1087 29.344 17.0435 27.632 17.8696 25.936C18.6956 24.24 19.3478 22.736 19.8261 21.424C20.1956 20.4 20.5543 19.68 20.9022 19.264C21.25 18.816 21.5435 18.592 21.7826 18.592C22.0217 18.592 22.2065 18.736 22.3369 19.024C22.4674 19.28 22.5326 19.632 22.5326 20.08C22.5326 20.976 22.2609 21.872 21.7174 22.768C20.9782 24.016 20.2609 25.536 19.5652 27.328C18.8696 29.088 18.3043 30.944 17.8696 32.896C17.4348 34.816 17.2174 36.624 17.2174 38.32C17.2174 39.504 17.3369 40.352 17.5761 40.864C17.8369 41.376 18.1739 41.632 18.5869 41.632C19.2174 41.632 19.8478 41.312 20.4782 40.672C21.1304 40.064 21.75 39.232 22.3369 38.176C22.9239 37.12 23.4674 35.952 23.9674 34.672C24.4674 33.36 24.9022 32.048 25.2717 30.736C25.3804 30.736 25.4674 30.752 25.5326 30.784C25.6196 30.816 25.663 30.944 25.663 31.168C25.2935 32.544 24.8478 33.936 24.3261 35.344C23.8261 36.752 23.25 38.048 22.5978 39.232C21.9456 40.384 21.2174 41.312 20.413 42.016C19.6087 42.72 18.7282 43.072 17.7717 43.072ZM14.8696 17.584C15.7391 17.584 16.7065 17.52 17.7717 17.392C18.8369 17.232 19.8913 16.96 20.9348 16.576C22 16.192 22.9783 15.648 23.8696 14.944C24.7609 14.24 25.4783 13.344 26.0217 12.256C26.5652 11.168 26.8369 9.84 26.8369 8.272C26.8369 6.864 26.4348 5.792 25.6304 5.056C24.8478 4.32 23.8478 3.952 22.6304 3.952C20.6087 3.952 18.7609 4.544 17.0869 5.728C15.4348 6.88 13.913 8.4 12.5217 10.288C11.1522 12.176 9.84781 14.208 8.60868 16.384C9.56521 16.8 10.5435 17.104 11.5435 17.296C12.5652 17.488 13.6739 17.584 14.8696 17.584ZM27.2549 40.24C26.3637 40.24 25.7333 39.84 25.3637 39.04C24.9941 38.24 24.8093 37.264 24.8093 36.112C24.8093 35.312 24.8637 34.56 24.9724 33.856C25.1028 33.152 25.2876 32.352 25.5267 31.456H25.4615C25.2876 31.456 25.2006 31.328 25.2006 31.072C25.2006 30.944 25.2876 30.576 25.4615 29.968C25.6572 29.36 25.8963 28.624 26.1789 27.76C26.4832 26.896 26.7876 26.016 27.0919 25.12C27.4179 24.224 27.7114 23.424 27.9723 22.72C28.4071 21.536 28.8853 20.32 29.4071 19.072C29.9288 17.792 30.4397 16.576 30.9397 15.424C31.4614 14.272 31.8962 13.328 32.244 12.592C33.0266 10.992 33.7549 10.192 34.4288 10.192H34.5918C34.7875 10.192 35.0049 10.24 35.244 10.336C35.5049 10.432 35.744 10.448 35.9614 10.384C35.6353 10.896 35.1353 11.824 34.4614 13.168C33.8092 14.48 33.0918 15.984 32.3092 17.68C31.9831 18.384 31.5701 19.328 31.0701 20.512C30.5918 21.696 30.081 23.024 29.5375 24.496C28.994 25.968 28.4831 27.472 28.0049 29.008C27.5484 30.512 27.168 31.984 26.8637 33.424C26.5593 34.832 26.4072 36.096 26.4072 37.216C26.4072 37.952 26.4941 38.464 26.668 38.752C26.8419 39.04 27.0593 39.184 27.3201 39.184C27.6462 39.184 28.0266 38.912 28.4614 38.368C28.9179 37.792 29.3744 37.056 29.831 36.16C30.3092 35.232 30.744 34.224 31.1353 33.136C31.5266 32.016 31.8418 30.896 32.081 29.776C32.3418 28.624 32.4723 27.568 32.4723 26.608C32.4723 25.68 32.3527 25.008 32.1136 24.592C31.8962 24.176 31.6027 23.968 31.2331 23.968C31.081 23.968 30.9288 24.032 30.7766 24.16C30.6244 24.256 30.494 24.304 30.3853 24.304C30.2766 24.304 30.2223 24.224 30.2223 24.064C30.2223 23.904 30.331 23.728 30.5484 23.536C30.7875 23.344 31.1353 23.248 31.5918 23.248C32.0049 23.248 32.4179 23.408 32.831 23.728C33.2658 24.048 33.6244 24.576 33.9071 25.312C34.1897 26.016 34.331 26.944 34.331 28.096C34.331 29.472 34.1136 30.88 33.6788 32.32C33.244 33.728 32.6788 35.04 31.9831 36.256C31.2875 37.44 30.5157 38.4 29.6679 39.136C28.8418 39.872 28.0375 40.24 27.2549 40.24ZM37.8902 40C36.9989 40 36.3359 39.536 35.9011 38.608C35.488 37.648 35.2815 36.496 35.2815 35.152C35.2815 33.904 35.4446 32.608 35.7706 31.264C36.1185 29.792 36.5967 28.448 37.2054 27.232C37.8359 26.016 38.5206 25.04 39.2598 24.304C40.0206 23.536 40.7706 23.152 41.5098 23.152C42.4011 23.152 43.0532 23.6 43.4663 24.496C43.9011 25.392 44.1185 26.528 44.1185 27.904C44.1185 28.864 44.0098 29.872 43.7924 30.928C43.575 31.984 43.2815 33.024 42.9119 34.048C43.1946 34.464 43.5967 34.672 44.1185 34.672C44.7272 34.672 45.2489 34.384 45.6837 33.808C46.1185 33.232 46.5424 32.208 46.9554 30.736C47.2163 30.736 47.3467 30.88 47.3467 31.168C46.9337 32.64 46.4554 33.728 45.9119 34.432C45.3902 35.104 44.7163 35.424 43.8902 35.392C43.3902 35.392 42.9772 35.184 42.6511 34.768C42.0424 36.24 41.3141 37.488 40.4663 38.512C39.6402 39.504 38.7815 40 37.8902 40ZM38.3467 38.944C38.8467 38.944 39.3467 38.64 39.8467 38.032C40.3467 37.392 40.8032 36.672 41.2163 35.872C41.6293 35.072 41.9228 34.384 42.0967 33.808C41.7489 32.88 41.5424 32.192 41.4772 31.744C41.4337 31.264 41.4119 30.912 41.4119 30.688C41.4119 30.08 41.5206 29.616 41.738 29.296C41.9554 28.976 42.1728 28.816 42.3902 28.816C42.6946 28.816 42.9554 29.008 43.1728 29.392C43.2163 29.04 43.2489 28.72 43.2706 28.432C43.2924 28.112 43.3032 27.808 43.3032 27.52C43.3032 26.688 43.1946 26.016 42.9772 25.504C42.7815 24.96 42.4663 24.688 42.0315 24.688C41.575 24.688 41.0967 24.976 40.5967 25.552C40.0967 26.128 39.6185 26.896 39.1619 27.856C38.7272 28.816 38.3467 29.888 38.0206 31.072C37.738 32.064 37.5206 33.008 37.3685 33.904C37.2163 34.768 37.1402 35.568 37.1402 36.304C37.1402 37.104 37.238 37.744 37.4337 38.224C37.6293 38.704 37.9337 38.944 38.3467 38.944ZM47.8975 40C47.6584 40 47.3649 39.92 47.0171 39.76C46.691 39.6 46.3975 39.312 46.1367 38.896C45.8975 38.448 45.778 37.792 45.778 36.928C45.778 36.096 45.9628 35.136 46.3323 34.048C46.7019 32.96 47.028 32 47.3106 31.168C47.0715 31.168 46.9519 31.024 46.9519 30.736C46.9736 30.64 47.0715 30.336 47.2454 29.824C47.4193 29.312 47.6258 28.704 47.8649 28C48.1041 27.296 48.3323 26.624 48.5497 25.984C48.7888 25.312 48.9736 24.8 49.1041 24.448C49.3649 23.744 49.778 23.392 50.3432 23.392H52.3649C51.9954 23.808 51.6584 24.272 51.3541 24.784C51.0715 25.264 50.7128 26.16 50.278 27.472C50.278 27.472 50.2019 27.696 50.0497 28.144C49.8975 28.592 49.7019 29.168 49.4628 29.872C49.2454 30.544 49.0171 31.232 48.778 31.936C48.5606 32.64 48.3758 33.232 48.2236 33.712C47.941 34.608 47.7562 35.328 47.6693 35.872C47.5823 36.384 47.5388 36.864 47.5388 37.312C47.5388 38.368 47.778 38.896 48.2562 38.896C48.778 38.896 49.4084 38.272 50.1475 37.024C50.7562 35.968 51.3541 34.704 51.941 33.232C52.528 31.76 53.0823 30.24 53.6041 28.672C54.1475 27.104 54.6258 25.696 55.0388 24.448C55.278 23.744 55.7019 23.392 56.3106 23.392H58.1041C57.6258 23.968 57.1367 24.832 56.6367 25.984C56.1584 27.136 55.6258 28.608 55.0388 30.4C54.8867 30.88 54.691 31.488 54.4519 32.224C54.2128 32.96 53.9954 33.744 53.7997 34.576C53.6258 35.408 53.5388 36.24 53.5388 37.072C53.5388 38.192 53.8106 38.752 54.3541 38.752C55.0932 38.752 55.8106 38 56.5062 36.496C57.2019 34.992 57.8867 33.072 58.5606 30.736C58.7345 30.736 58.8323 30.752 58.8541 30.784C58.8975 30.816 58.9302 30.944 58.9519 31.168C58.7128 32.032 58.4193 32.976 58.0715 34C57.7454 34.992 57.3649 35.952 56.9302 36.88C56.5171 37.808 56.0497 38.56 55.528 39.136C55.028 39.712 54.4736 40 53.8649 40C53.3215 40 52.8758 39.712 52.528 39.136C52.1801 38.528 52.0062 37.68 52.0062 36.592C52.0062 35.728 52.1149 34.8 52.3323 33.808C51.9628 34.768 51.5388 35.728 51.0606 36.688C50.5823 37.648 50.0715 38.448 49.528 39.088C48.9845 39.696 48.441 40 47.8975 40ZM65.3253 14.656C65.0426 15.264 64.7274 16.032 64.3796 16.96C64.0318 17.888 63.7057 18.784 63.4013 19.648C63.1187 20.512 62.9013 21.168 62.7492 21.616H65.7492C65.7492 21.744 65.7057 21.952 65.6187 22.24C65.5535 22.528 65.4122 22.736 65.1948 22.864H62.3579C62.097 23.728 61.7927 24.768 61.4448 25.984C61.1187 27.2 60.7926 28.464 60.4666 29.776C60.1622 31.088 59.9013 32.32 59.684 33.472C59.4883 34.592 59.3905 35.504 59.3905 36.208C59.3905 37.168 59.4774 37.888 59.6513 38.368C59.8253 38.816 60.1405 39.04 60.597 39.04C61.184 39.04 61.7492 38.624 62.2927 37.792C62.8361 36.928 63.347 35.856 63.8253 34.576C64.3253 33.296 64.76 32.016 65.1296 30.736C65.3905 30.736 65.5209 30.88 65.5209 31.168C65.2818 32.032 64.9883 32.976 64.6405 34C64.2927 35.024 63.8905 36.016 63.434 36.976C62.9992 37.904 62.4992 38.672 61.934 39.28C61.3905 39.856 60.7818 40.144 60.1079 40.144C59.1948 40.144 58.5753 39.776 58.2492 39.04C57.9231 38.272 57.76 37.296 57.76 36.112C57.76 35.248 57.8687 34.208 58.0861 32.992C58.3035 31.744 58.5644 30.464 58.8687 29.152C59.1948 27.84 59.51 26.624 59.8144 25.504C60.1187 24.352 60.3579 23.472 60.5318 22.864H58.4448C58.4448 22.608 58.5209 22.336 58.6731 22.048C58.8253 21.76 58.9883 21.616 59.1622 21.616H60.8905C61.0644 21.104 61.26 20.464 61.4774 19.696C61.7166 18.928 62.0318 18.08 62.4231 17.152C62.7492 16.384 63.1622 15.776 63.6622 15.328C64.184 14.88 64.7383 14.656 65.3253 14.656ZM113.295 45.52C112.969 45.456 112.523 45.328 111.958 45.136C111.393 44.976 110.817 44.64 110.23 44.128C109.643 43.616 109.143 42.832 108.73 41.776C108.317 40.752 108.11 39.376 108.11 37.648C108.11 35.664 108.382 33.488 108.925 31.12C109.49 28.72 110.175 26.224 110.98 23.632C111.784 21.04 112.556 18.48 113.295 15.952C113.882 13.936 114.175 12.4 114.175 11.344C114.175 10.288 113.904 9.76 113.36 9.76C112.751 9.76 111.838 10.48 110.621 11.92C109.425 13.328 108.034 15.472 106.447 18.352C106.034 19.12 105.501 20.192 104.849 21.568C104.197 22.912 103.501 24.416 102.762 26.08C102.023 27.712 101.295 29.376 100.577 31.072C99.8818 32.736 99.2622 34.272 98.7187 35.68C98.197 37.088 97.8166 38.208 97.5774 39.04C97.2948 40.032 96.9687 40.704 96.5992 41.056C96.2296 41.44 95.8818 41.632 95.5557 41.632C95.2731 41.632 95.034 41.52 94.8383 41.296C94.6209 41.072 94.5122 40.8 94.5122 40.48C94.5122 40.288 94.5448 40.128 94.61 40C94.7405 39.616 95.0666 38.736 95.5883 37.36C96.11 35.984 96.7187 34.16 97.4144 31.888C98.11 29.616 98.7731 26.976 99.4035 23.968C99.5992 23.04 99.7948 21.968 99.9905 20.752C100.208 19.536 100.404 18.288 100.577 17.008C100.751 15.696 100.893 14.48 101.001 13.36C101.132 12.208 101.197 11.28 101.197 10.576C101.197 9.456 101.067 8.64 100.806 8.128C100.545 7.584 100.197 7.312 99.7622 7.312C99.284 7.312 98.7405 7.616 98.1318 8.224C97.5231 8.832 96.9035 9.712 96.2731 10.864C95.1861 12.88 94.2296 14.752 93.4035 16.48C92.5774 18.176 91.8166 19.872 91.1209 21.568C90.447 23.264 89.7731 25.072 89.0992 26.992C88.447 28.912 87.7513 31.072 87.0122 33.472C86.2731 35.84 85.4253 38.592 84.4687 41.728C84.3166 42.24 84.0557 42.608 83.6861 42.832C83.3383 43.056 83.0122 43.168 82.7079 43.168C82.4035 43.168 82.1535 43.072 81.9579 42.88C81.7622 42.688 81.697 42.416 81.7622 42.064C82.2405 40.944 82.7731 39.552 83.36 37.888C83.947 36.192 84.5448 34.32 85.1535 32.272C85.7622 30.224 86.3492 28.096 86.9144 25.888C87.4796 23.68 87.9796 21.52 88.4144 19.408C88.8709 17.296 89.2296 15.312 89.4905 13.456C89.7513 11.6 89.8818 10.016 89.8818 8.704C89.8818 6.24 89.5231 4.48 88.8057 3.424C88.11 2.368 87.2079 1.84 86.0992 1.84C85.1209 1.84 84.0448 2.192 82.8709 2.896C81.697 3.6 80.5122 4.56 79.3166 5.776C78.1426 6.992 77.034 8.368 75.9905 9.904C74.4905 12.112 73.3057 14.512 72.4361 17.104C71.5883 19.696 71.1644 22.32 71.1644 24.976C71.1644 26.768 71.3927 28.288 71.8492 29.536C72.3057 30.784 72.9035 31.728 73.6427 32.368C74.4035 33.008 75.2405 33.328 76.1535 33.328C77.0883 33.328 77.9579 32.992 78.7622 32.32C79.5883 31.616 80.3057 30.72 80.9144 29.632C81.5448 28.512 82.034 27.344 82.3818 26.128C82.7296 24.88 82.9035 23.712 82.9035 22.624C82.9035 21.696 82.7296 20.928 82.3818 20.32C82.034 19.712 81.4796 19.408 80.7187 19.408C80.6318 19.408 80.534 19.424 80.4253 19.456C80.3383 19.456 80.2405 19.456 80.1318 19.456H80.034C79.8818 19.456 79.7405 19.424 79.61 19.36C79.4796 19.264 79.4144 19.152 79.4144 19.024C79.4144 18.896 79.5231 18.752 79.7405 18.592C79.9796 18.432 80.4035 18.352 81.0122 18.352C81.9905 18.352 82.7187 18.784 83.197 19.648C83.697 20.48 83.947 21.552 83.947 22.864C83.947 24.144 83.7187 25.456 83.2622 26.8C82.8274 28.144 82.2296 29.392 81.4687 30.544C80.7079 31.696 79.8492 32.624 78.8926 33.328C77.9579 34.032 76.9905 34.384 75.9905 34.384C74.8166 34.384 73.7187 33.984 72.697 33.184C71.697 32.384 70.8927 31.232 70.284 29.728C69.6753 28.192 69.3709 26.368 69.3709 24.256C69.3709 22.24 69.6535 20.256 70.2187 18.304C70.784 16.32 71.5122 14.464 72.4035 12.736C73.3166 10.976 74.284 9.424 75.3057 8.08C76.4361 6.576 77.6318 5.296 78.8926 4.24C80.1535 3.152 81.4035 2.32 82.6427 1.744C83.9035 1.136 85.0774 0.831997 86.1644 0.831997C87.7731 0.831997 89.0992 1.536 90.1427 2.944C91.2079 4.352 91.7405 6.624 91.7405 9.76C91.7405 11.04 91.6209 12.512 91.3818 14.176C91.1427 15.808 90.86 17.456 90.534 19.12C90.2079 20.752 89.8926 22.208 89.5883 23.488H89.6535C90.4361 21.408 91.1318 19.632 91.7405 18.16C92.3709 16.656 93.0013 15.264 93.6318 13.984C94.2622 12.704 94.9687 11.36 95.7513 9.952C96.4253 8.768 97.197 7.824 98.0666 7.12C98.9361 6.416 99.7731 6.064 100.577 6.064C101.295 6.064 101.904 6.416 102.404 7.12C102.904 7.824 103.154 9.024 103.154 10.72C103.154 10.912 103.154 11.072 103.154 11.2C103.154 11.328 103.143 11.52 103.121 11.776C102.925 14.848 102.512 17.872 101.882 20.848C101.251 23.792 100.599 26.768 99.9253 29.776C100.599 28.24 101.512 26.288 102.664 23.92C103.817 21.552 105.077 19.104 106.447 16.576C108.121 13.504 109.675 11.2 111.11 9.664C112.545 8.128 113.73 7.36 114.664 7.36C115.838 7.36 116.425 8.416 116.425 10.528C116.425 11.328 116.317 12.288 116.099 13.408C115.904 14.528 115.588 15.712 115.154 16.96C114.675 18.368 114.143 20 113.556 21.856C112.99 23.68 112.447 25.6 111.925 27.616C111.404 29.632 110.969 31.616 110.621 33.568C110.295 35.488 110.132 37.264 110.132 38.896C110.132 40.656 110.404 42.064 110.947 43.12C111.512 44.208 112.48 44.752 113.849 44.752H114.045C114.371 44.752 114.534 44.848 114.534 45.04C114.534 45.168 114.425 45.296 114.208 45.424C113.99 45.552 113.686 45.584 113.295 45.52ZM116.619 40.192C115.815 40.192 115.086 39.808 114.434 39.04C113.804 38.272 113.489 37.104 113.489 35.536C113.489 34.224 113.684 32.832 114.076 31.36C114.489 29.888 115.021 28.512 115.673 27.232C116.347 25.92 117.086 24.864 117.891 24.064C118.717 23.232 119.543 22.816 120.369 22.816C120.782 22.816 121.184 22.992 121.576 23.344C121.967 23.696 122.162 24.304 122.162 25.168C122.162 25.968 121.956 26.848 121.543 27.808C121.13 28.768 120.543 29.664 119.782 30.496C119.456 30.848 119.043 31.184 118.543 31.504C118.043 31.824 117.543 32.096 117.043 32.32C116.543 32.512 116.13 32.608 115.804 32.608C115.695 32.992 115.586 33.504 115.478 34.144C115.391 34.784 115.347 35.44 115.347 36.112C115.347 36.912 115.456 37.632 115.673 38.272C115.891 38.912 116.293 39.232 116.88 39.232C117.597 39.232 118.26 38.928 118.869 38.32C119.499 37.712 120.054 36.944 120.532 36.016C121.032 35.088 121.456 34.144 121.804 33.184C122.152 32.224 122.423 31.408 122.619 30.736C122.88 30.736 123.01 30.88 123.01 31.168C122.728 32.064 122.402 33.04 122.032 34.096C121.684 35.152 121.26 36.144 120.76 37.072C120.282 37.968 119.695 38.72 118.999 39.328C118.326 39.904 117.532 40.192 116.619 40.192ZM116.032 31.744C116.336 31.744 116.847 31.584 117.565 31.264C118.282 30.912 118.934 30.368 119.521 29.632C120.086 28.896 120.521 28.096 120.826 27.232C121.13 26.336 121.282 25.584 121.282 24.976C121.282 24.272 121.108 23.92 120.76 23.92C120.499 23.92 120.141 24.176 119.684 24.688C119.228 25.2 118.662 26.064 117.989 27.28C117.576 28.048 117.184 28.88 116.815 29.776C116.445 30.672 116.184 31.328 116.032 31.744Z"/>
</mask>
<path d="M17.7717 43.072C16.8152 43.072 16.1413 42.512 15.75 41.392C15.3587 40.304 15.163 39.024 15.163 37.552C15.163 36.24 15.2826 34.944 15.5217 33.664C15.7826 32.384 16.0869 31.408 16.4348 30.736C15.8478 31.76 15.1196 32.928 14.25 34.24C13.3804 35.552 12.4239 36.816 11.3804 38.032C10.3369 39.248 9.26086 40.256 8.15216 41.056C7.04347 41.856 5.94564 42.256 4.85868 42.256C3.4239 42.256 2.34781 41.584 1.63042 40.24C0.934771 38.896 0.586945 37.056 0.586945 34.72C0.586945 32.896 0.793466 30.944 1.20651 28.864C1.64129 26.752 2.27173 24.608 3.09781 22.432C3.48912 21.376 3.9239 20.336 4.40216 19.312C4.90216 18.256 5.43477 17.264 5.99999 16.336C5.32607 15.856 4.6739 15.328 4.04347 14.752C3.41303 14.144 2.90216 13.424 2.51086 12.592C2.11955 11.76 1.9239 10.768 1.9239 9.616C1.9239 9.008 2.01086 8.464 2.18477 7.984C2.38042 7.472 2.58694 7.216 2.80434 7.216C2.99999 7.216 3.09781 7.392 3.09781 7.744C3.09781 7.968 3.05434 8.208 2.96738 8.464C2.85868 8.88 2.80434 9.264 2.80434 9.616C2.80434 10.48 3.01086 11.296 3.4239 12.064C3.83694 12.8 4.33694 13.44 4.9239 13.984C5.51086 14.528 6.05434 14.96 6.55434 15.28C7.94564 13.04 9.46738 10.976 11.1196 9.088C12.7935 7.168 14.5869 5.632 16.5 4.48C18.413 3.328 20.4239 2.752 22.5326 2.752C24.2935 2.752 25.6739 3.328 26.6739 4.48C27.6739 5.6 28.1739 7.056 28.1739 8.848C28.1739 10.448 27.8587 11.824 27.2283 12.976C26.6196 14.096 25.8152 15.04 24.8152 15.808C23.8152 16.544 22.7282 17.136 21.5543 17.584C20.4022 18 19.2609 18.304 18.1304 18.496C17 18.656 16.0109 18.736 15.163 18.736C13.9239 18.736 12.7174 18.624 11.5435 18.4C10.3913 18.176 9.23912 17.824 8.08694 17.344C7.52173 18.528 6.90216 19.904 6.22825 21.472C5.57607 23.008 4.94564 24.64 4.33694 26.368C3.74999 28.064 3.26086 29.76 2.86955 31.456C2.49999 33.12 2.31521 34.672 2.31521 36.112C2.31521 37.68 2.56521 38.864 3.06521 39.664C3.56521 40.432 4.23912 40.816 5.08694 40.816C6.10868 40.816 7.18477 40.368 8.3152 39.472C9.46738 38.544 10.6196 37.344 11.7717 35.872C12.9239 34.4 14.0217 32.8 15.0652 31.072C16.1087 29.344 17.0435 27.632 17.8696 25.936C18.6956 24.24 19.3478 22.736 19.8261 21.424C20.1956 20.4 20.5543 19.68 20.9022 19.264C21.25 18.816 21.5435 18.592 21.7826 18.592C22.0217 18.592 22.2065 18.736 22.3369 19.024C22.4674 19.28 22.5326 19.632 22.5326 20.08C22.5326 20.976 22.2609 21.872 21.7174 22.768C20.9782 24.016 20.2609 25.536 19.5652 27.328C18.8696 29.088 18.3043 30.944 17.8696 32.896C17.4348 34.816 17.2174 36.624 17.2174 38.32C17.2174 39.504 17.3369 40.352 17.5761 40.864C17.8369 41.376 18.1739 41.632 18.5869 41.632C19.2174 41.632 19.8478 41.312 20.4782 40.672C21.1304 40.064 21.75 39.232 22.3369 38.176C22.9239 37.12 23.4674 35.952 23.9674 34.672C24.4674 33.36 24.9022 32.048 25.2717 30.736C25.3804 30.736 25.4674 30.752 25.5326 30.784C25.6196 30.816 25.663 30.944 25.663 31.168C25.2935 32.544 24.8478 33.936 24.3261 35.344C23.8261 36.752 23.25 38.048 22.5978 39.232C21.9456 40.384 21.2174 41.312 20.413 42.016C19.6087 42.72 18.7282 43.072 17.7717 43.072ZM14.8696 17.584C15.7391 17.584 16.7065 17.52 17.7717 17.392C18.8369 17.232 19.8913 16.96 20.9348 16.576C22 16.192 22.9783 15.648 23.8696 14.944C24.7609 14.24 25.4783 13.344 26.0217 12.256C26.5652 11.168 26.8369 9.84 26.8369 8.272C26.8369 6.864 26.4348 5.792 25.6304 5.056C24.8478 4.32 23.8478 3.952 22.6304 3.952C20.6087 3.952 18.7609 4.544 17.0869 5.728C15.4348 6.88 13.913 8.4 12.5217 10.288C11.1522 12.176 9.84781 14.208 8.60868 16.384C9.56521 16.8 10.5435 17.104 11.5435 17.296C12.5652 17.488 13.6739 17.584 14.8696 17.584ZM27.2549 40.24C26.3637 40.24 25.7333 39.84 25.3637 39.04C24.9941 38.24 24.8093 37.264 24.8093 36.112C24.8093 35.312 24.8637 34.56 24.9724 33.856C25.1028 33.152 25.2876 32.352 25.5267 31.456H25.4615C25.2876 31.456 25.2006 31.328 25.2006 31.072C25.2006 30.944 25.2876 30.576 25.4615 29.968C25.6572 29.36 25.8963 28.624 26.1789 27.76C26.4832 26.896 26.7876 26.016 27.0919 25.12C27.4179 24.224 27.7114 23.424 27.9723 22.72C28.4071 21.536 28.8853 20.32 29.4071 19.072C29.9288 17.792 30.4397 16.576 30.9397 15.424C31.4614 14.272 31.8962 13.328 32.244 12.592C33.0266 10.992 33.7549 10.192 34.4288 10.192H34.5918C34.7875 10.192 35.0049 10.24 35.244 10.336C35.5049 10.432 35.744 10.448 35.9614 10.384C35.6353 10.896 35.1353 11.824 34.4614 13.168C33.8092 14.48 33.0918 15.984 32.3092 17.68C31.9831 18.384 31.5701 19.328 31.0701 20.512C30.5918 21.696 30.081 23.024 29.5375 24.496C28.994 25.968 28.4831 27.472 28.0049 29.008C27.5484 30.512 27.168 31.984 26.8637 33.424C26.5593 34.832 26.4072 36.096 26.4072 37.216C26.4072 37.952 26.4941 38.464 26.668 38.752C26.8419 39.04 27.0593 39.184 27.3201 39.184C27.6462 39.184 28.0266 38.912 28.4614 38.368C28.9179 37.792 29.3744 37.056 29.831 36.16C30.3092 35.232 30.744 34.224 31.1353 33.136C31.5266 32.016 31.8418 30.896 32.081 29.776C32.3418 28.624 32.4723 27.568 32.4723 26.608C32.4723 25.68 32.3527 25.008 32.1136 24.592C31.8962 24.176 31.6027 23.968 31.2331 23.968C31.081 23.968 30.9288 24.032 30.7766 24.16C30.6244 24.256 30.494 24.304 30.3853 24.304C30.2766 24.304 30.2223 24.224 30.2223 24.064C30.2223 23.904 30.331 23.728 30.5484 23.536C30.7875 23.344 31.1353 23.248 31.5918 23.248C32.0049 23.248 32.4179 23.408 32.831 23.728C33.2658 24.048 33.6244 24.576 33.9071 25.312C34.1897 26.016 34.331 26.944 34.331 28.096C34.331 29.472 34.1136 30.88 33.6788 32.32C33.244 33.728 32.6788 35.04 31.9831 36.256C31.2875 37.44 30.5157 38.4 29.6679 39.136C28.8418 39.872 28.0375 40.24 27.2549 40.24ZM37.8902 40C36.9989 40 36.3359 39.536 35.9011 38.608C35.488 37.648 35.2815 36.496 35.2815 35.152C35.2815 33.904 35.4446 32.608 35.7706 31.264C36.1185 29.792 36.5967 28.448 37.2054 27.232C37.8359 26.016 38.5206 25.04 39.2598 24.304C40.0206 23.536 40.7706 23.152 41.5098 23.152C42.4011 23.152 43.0532 23.6 43.4663 24.496C43.9011 25.392 44.1185 26.528 44.1185 27.904C44.1185 28.864 44.0098 29.872 43.7924 30.928C43.575 31.984 43.2815 33.024 42.9119 34.048C43.1946 34.464 43.5967 34.672 44.1185 34.672C44.7272 34.672 45.2489 34.384 45.6837 33.808C46.1185 33.232 46.5424 32.208 46.9554 30.736C47.2163 30.736 47.3467 30.88 47.3467 31.168C46.9337 32.64 46.4554 33.728 45.9119 34.432C45.3902 35.104 44.7163 35.424 43.8902 35.392C43.3902 35.392 42.9772 35.184 42.6511 34.768C42.0424 36.24 41.3141 37.488 40.4663 38.512C39.6402 39.504 38.7815 40 37.8902 40ZM38.3467 38.944C38.8467 38.944 39.3467 38.64 39.8467 38.032C40.3467 37.392 40.8032 36.672 41.2163 35.872C41.6293 35.072 41.9228 34.384 42.0967 33.808C41.7489 32.88 41.5424 32.192 41.4772 31.744C41.4337 31.264 41.4119 30.912 41.4119 30.688C41.4119 30.08 41.5206 29.616 41.738 29.296C41.9554 28.976 42.1728 28.816 42.3902 28.816C42.6946 28.816 42.9554 29.008 43.1728 29.392C43.2163 29.04 43.2489 28.72 43.2706 28.432C43.2924 28.112 43.3032 27.808 43.3032 27.52C43.3032 26.688 43.1946 26.016 42.9772 25.504C42.7815 24.96 42.4663 24.688 42.0315 24.688C41.575 24.688 41.0967 24.976 40.5967 25.552C40.0967 26.128 39.6185 26.896 39.1619 27.856C38.7272 28.816 38.3467 29.888 38.0206 31.072C37.738 32.064 37.5206 33.008 37.3685 33.904C37.2163 34.768 37.1402 35.568 37.1402 36.304C37.1402 37.104 37.238 37.744 37.4337 38.224C37.6293 38.704 37.9337 38.944 38.3467 38.944ZM47.8975 40C47.6584 40 47.3649 39.92 47.0171 39.76C46.691 39.6 46.3975 39.312 46.1367 38.896C45.8975 38.448 45.778 37.792 45.778 36.928C45.778 36.096 45.9628 35.136 46.3323 34.048C46.7019 32.96 47.028 32 47.3106 31.168C47.0715 31.168 46.9519 31.024 46.9519 30.736C46.9736 30.64 47.0715 30.336 47.2454 29.824C47.4193 29.312 47.6258 28.704 47.8649 28C48.1041 27.296 48.3323 26.624 48.5497 25.984C48.7888 25.312 48.9736 24.8 49.1041 24.448C49.3649 23.744 49.778 23.392 50.3432 23.392H52.3649C51.9954 23.808 51.6584 24.272 51.3541 24.784C51.0715 25.264 50.7128 26.16 50.278 27.472C50.278 27.472 50.2019 27.696 50.0497 28.144C49.8975 28.592 49.7019 29.168 49.4628 29.872C49.2454 30.544 49.0171 31.232 48.778 31.936C48.5606 32.64 48.3758 33.232 48.2236 33.712C47.941 34.608 47.7562 35.328 47.6693 35.872C47.5823 36.384 47.5388 36.864 47.5388 37.312C47.5388 38.368 47.778 38.896 48.2562 38.896C48.778 38.896 49.4084 38.272 50.1475 37.024C50.7562 35.968 51.3541 34.704 51.941 33.232C52.528 31.76 53.0823 30.24 53.6041 28.672C54.1475 27.104 54.6258 25.696 55.0388 24.448C55.278 23.744 55.7019 23.392 56.3106 23.392H58.1041C57.6258 23.968 57.1367 24.832 56.6367 25.984C56.1584 27.136 55.6258 28.608 55.0388 30.4C54.8867 30.88 54.691 31.488 54.4519 32.224C54.2128 32.96 53.9954 33.744 53.7997 34.576C53.6258 35.408 53.5388 36.24 53.5388 37.072C53.5388 38.192 53.8106 38.752 54.3541 38.752C55.0932 38.752 55.8106 38 56.5062 36.496C57.2019 34.992 57.8867 33.072 58.5606 30.736C58.7345 30.736 58.8323 30.752 58.8541 30.784C58.8975 30.816 58.9302 30.944 58.9519 31.168C58.7128 32.032 58.4193 32.976 58.0715 34C57.7454 34.992 57.3649 35.952 56.9302 36.88C56.5171 37.808 56.0497 38.56 55.528 39.136C55.028 39.712 54.4736 40 53.8649 40C53.3215 40 52.8758 39.712 52.528 39.136C52.1801 38.528 52.0062 37.68 52.0062 36.592C52.0062 35.728 52.1149 34.8 52.3323 33.808C51.9628 34.768 51.5388 35.728 51.0606 36.688C50.5823 37.648 50.0715 38.448 49.528 39.088C48.9845 39.696 48.441 40 47.8975 40ZM65.3253 14.656C65.0426 15.264 64.7274 16.032 64.3796 16.96C64.0318 17.888 63.7057 18.784 63.4013 19.648C63.1187 20.512 62.9013 21.168 62.7492 21.616H65.7492C65.7492 21.744 65.7057 21.952 65.6187 22.24C65.5535 22.528 65.4122 22.736 65.1948 22.864H62.3579C62.097 23.728 61.7927 24.768 61.4448 25.984C61.1187 27.2 60.7926 28.464 60.4666 29.776C60.1622 31.088 59.9013 32.32 59.684 33.472C59.4883 34.592 59.3905 35.504 59.3905 36.208C59.3905 37.168 59.4774 37.888 59.6513 38.368C59.8253 38.816 60.1405 39.04 60.597 39.04C61.184 39.04 61.7492 38.624 62.2927 37.792C62.8361 36.928 63.347 35.856 63.8253 34.576C64.3253 33.296 64.76 32.016 65.1296 30.736C65.3905 30.736 65.5209 30.88 65.5209 31.168C65.2818 32.032 64.9883 32.976 64.6405 34C64.2927 35.024 63.8905 36.016 63.434 36.976C62.9992 37.904 62.4992 38.672 61.934 39.28C61.3905 39.856 60.7818 40.144 60.1079 40.144C59.1948 40.144 58.5753 39.776 58.2492 39.04C57.9231 38.272 57.76 37.296 57.76 36.112C57.76 35.248 57.8687 34.208 58.0861 32.992C58.3035 31.744 58.5644 30.464 58.8687 29.152C59.1948 27.84 59.51 26.624 59.8144 25.504C60.1187 24.352 60.3579 23.472 60.5318 22.864H58.4448C58.4448 22.608 58.5209 22.336 58.6731 22.048C58.8253 21.76 58.9883 21.616 59.1622 21.616H60.8905C61.0644 21.104 61.26 20.464 61.4774 19.696C61.7166 18.928 62.0318 18.08 62.4231 17.152C62.7492 16.384 63.1622 15.776 63.6622 15.328C64.184 14.88 64.7383 14.656 65.3253 14.656ZM113.295 45.52C112.969 45.456 112.523 45.328 111.958 45.136C111.393 44.976 110.817 44.64 110.23 44.128C109.643 43.616 109.143 42.832 108.73 41.776C108.317 40.752 108.11 39.376 108.11 37.648C108.11 35.664 108.382 33.488 108.925 31.12C109.49 28.72 110.175 26.224 110.98 23.632C111.784 21.04 112.556 18.48 113.295 15.952C113.882 13.936 114.175 12.4 114.175 11.344C114.175 10.288 113.904 9.76 113.36 9.76C112.751 9.76 111.838 10.48 110.621 11.92C109.425 13.328 108.034 15.472 106.447 18.352C106.034 19.12 105.501 20.192 104.849 21.568C104.197 22.912 103.501 24.416 102.762 26.08C102.023 27.712 101.295 29.376 100.577 31.072C99.8818 32.736 99.2622 34.272 98.7187 35.68C98.197 37.088 97.8166 38.208 97.5774 39.04C97.2948 40.032 96.9687 40.704 96.5992 41.056C96.2296 41.44 95.8818 41.632 95.5557 41.632C95.2731 41.632 95.034 41.52 94.8383 41.296C94.6209 41.072 94.5122 40.8 94.5122 40.48C94.5122 40.288 94.5448 40.128 94.61 40C94.7405 39.616 95.0666 38.736 95.5883 37.36C96.11 35.984 96.7187 34.16 97.4144 31.888C98.11 29.616 98.7731 26.976 99.4035 23.968C99.5992 23.04 99.7948 21.968 99.9905 20.752C100.208 19.536 100.404 18.288 100.577 17.008C100.751 15.696 100.893 14.48 101.001 13.36C101.132 12.208 101.197 11.28 101.197 10.576C101.197 9.456 101.067 8.64 100.806 8.128C100.545 7.584 100.197 7.312 99.7622 7.312C99.284 7.312 98.7405 7.616 98.1318 8.224C97.5231 8.832 96.9035 9.712 96.2731 10.864C95.1861 12.88 94.2296 14.752 93.4035 16.48C92.5774 18.176 91.8166 19.872 91.1209 21.568C90.447 23.264 89.7731 25.072 89.0992 26.992C88.447 28.912 87.7513 31.072 87.0122 33.472C86.2731 35.84 85.4253 38.592 84.4687 41.728C84.3166 42.24 84.0557 42.608 83.6861 42.832C83.3383 43.056 83.0122 43.168 82.7079 43.168C82.4035 43.168 82.1535 43.072 81.9579 42.88C81.7622 42.688 81.697 42.416 81.7622 42.064C82.2405 40.944 82.7731 39.552 83.36 37.888C83.947 36.192 84.5448 34.32 85.1535 32.272C85.7622 30.224 86.3492 28.096 86.9144 25.888C87.4796 23.68 87.9796 21.52 88.4144 19.408C88.8709 17.296 89.2296 15.312 89.4905 13.456C89.7513 11.6 89.8818 10.016 89.8818 8.704C89.8818 6.24 89.5231 4.48 88.8057 3.424C88.11 2.368 87.2079 1.84 86.0992 1.84C85.1209 1.84 84.0448 2.192 82.8709 2.896C81.697 3.6 80.5122 4.56 79.3166 5.776C78.1426 6.992 77.034 8.368 75.9905 9.904C74.4905 12.112 73.3057 14.512 72.4361 17.104C71.5883 19.696 71.1644 22.32 71.1644 24.976C71.1644 26.768 71.3927 28.288 71.8492 29.536C72.3057 30.784 72.9035 31.728 73.6427 32.368C74.4035 33.008 75.2405 33.328 76.1535 33.328C77.0883 33.328 77.9579 32.992 78.7622 32.32C79.5883 31.616 80.3057 30.72 80.9144 29.632C81.5448 28.512 82.034 27.344 82.3818 26.128C82.7296 24.88 82.9035 23.712 82.9035 22.624C82.9035 21.696 82.7296 20.928 82.3818 20.32C82.034 19.712 81.4796 19.408 80.7187 19.408C80.6318 19.408 80.534 19.424 80.4253 19.456C80.3383 19.456 80.2405 19.456 80.1318 19.456H80.034C79.8818 19.456 79.7405 19.424 79.61 19.36C79.4796 19.264 79.4144 19.152 79.4144 19.024C79.4144 18.896 79.5231 18.752 79.7405 18.592C79.9796 18.432 80.4035 18.352 81.0122 18.352C81.9905 18.352 82.7187 18.784 83.197 19.648C83.697 20.48 83.947 21.552 83.947 22.864C83.947 24.144 83.7187 25.456 83.2622 26.8C82.8274 28.144 82.2296 29.392 81.4687 30.544C80.7079 31.696 79.8492 32.624 78.8926 33.328C77.9579 34.032 76.9905 34.384 75.9905 34.384C74.8166 34.384 73.7187 33.984 72.697 33.184C71.697 32.384 70.8927 31.232 70.284 29.728C69.6753 28.192 69.3709 26.368 69.3709 24.256C69.3709 22.24 69.6535 20.256 70.2187 18.304C70.784 16.32 71.5122 14.464 72.4035 12.736C73.3166 10.976 74.284 9.424 75.3057 8.08C76.4361 6.576 77.6318 5.296 78.8926 4.24C80.1535 3.152 81.4035 2.32 82.6427 1.744C83.9035 1.136 85.0774 0.831997 86.1644 0.831997C87.7731 0.831997 89.0992 1.536 90.1427 2.944C91.2079 4.352 91.7405 6.624 91.7405 9.76C91.7405 11.04 91.6209 12.512 91.3818 14.176C91.1427 15.808 90.86 17.456 90.534 19.12C90.2079 20.752 89.8926 22.208 89.5883 23.488H89.6535C90.4361 21.408 91.1318 19.632 91.7405 18.16C92.3709 16.656 93.0013 15.264 93.6318 13.984C94.2622 12.704 94.9687 11.36 95.7513 9.952C96.4253 8.768 97.197 7.824 98.0666 7.12C98.9361 6.416 99.7731 6.064 100.577 6.064C101.295 6.064 101.904 6.416 102.404 7.12C102.904 7.824 103.154 9.024 103.154 10.72C103.154 10.912 103.154 11.072 103.154 11.2C103.154 11.328 103.143 11.52 103.121 11.776C102.925 14.848 102.512 17.872 101.882 20.848C101.251 23.792 100.599 26.768 99.9253 29.776C100.599 28.24 101.512 26.288 102.664 23.92C103.817 21.552 105.077 19.104 106.447 16.576C108.121 13.504 109.675 11.2 111.11 9.664C112.545 8.128 113.73 7.36 114.664 7.36C115.838 7.36 116.425 8.416 116.425 10.528C116.425 11.328 116.317 12.288 116.099 13.408C115.904 14.528 115.588 15.712 115.154 16.96C114.675 18.368 114.143 20 113.556 21.856C112.99 23.68 112.447 25.6 111.925 27.616C111.404 29.632 110.969 31.616 110.621 33.568C110.295 35.488 110.132 37.264 110.132 38.896C110.132 40.656 110.404 42.064 110.947 43.12C111.512 44.208 112.48 44.752 113.849 44.752H114.045C114.371 44.752 114.534 44.848 114.534 45.04C114.534 45.168 114.425 45.296 114.208 45.424C113.99 45.552 113.686 45.584 113.295 45.52ZM116.619 40.192C115.815 40.192 115.086 39.808 114.434 39.04C113.804 38.272 113.489 37.104 113.489 35.536C113.489 34.224 113.684 32.832 114.076 31.36C114.489 29.888 115.021 28.512 115.673 27.232C116.347 25.92 117.086 24.864 117.891 24.064C118.717 23.232 119.543 22.816 120.369 22.816C120.782 22.816 121.184 22.992 121.576 23.344C121.967 23.696 122.162 24.304 122.162 25.168C122.162 25.968 121.956 26.848 121.543 27.808C121.13 28.768 120.543 29.664 119.782 30.496C119.456 30.848 119.043 31.184 118.543 31.504C118.043 31.824 117.543 32.096 117.043 32.32C116.543 32.512 116.13 32.608 115.804 32.608C115.695 32.992 115.586 33.504 115.478 34.144C115.391 34.784 115.347 35.44 115.347 36.112C115.347 36.912 115.456 37.632 115.673 38.272C115.891 38.912 116.293 39.232 116.88 39.232C117.597 39.232 118.26 38.928 118.869 38.32C119.499 37.712 120.054 36.944 120.532 36.016C121.032 35.088 121.456 34.144 121.804 33.184C122.152 32.224 122.423 31.408 122.619 30.736C122.88 30.736 123.01 30.88 123.01 31.168C122.728 32.064 122.402 33.04 122.032 34.096C121.684 35.152 121.26 36.144 120.76 37.072C120.282 37.968 119.695 38.72 118.999 39.328C118.326 39.904 117.532 40.192 116.619 40.192ZM116.032 31.744C116.336 31.744 116.847 31.584 117.565 31.264C118.282 30.912 118.934 30.368 119.521 29.632C120.086 28.896 120.521 28.096 120.826 27.232C121.13 26.336 121.282 25.584 121.282 24.976C121.282 24.272 121.108 23.92 120.76 23.92C120.499 23.92 120.141 24.176 119.684 24.688C119.228 25.2 118.662 26.064 117.989 27.28C117.576 28.048 117.184 28.88 116.815 29.776C116.445 30.672 116.184 31.328 116.032 31.744Z" stroke="white" mask="url(#path-1-inside-1_15_3)"/>
</svg>
