<svg width="125" height="48" viewBox="0 0 125 48" fill="none" xmlns="http://www.w3.org/2000/svg">
<mask id="path-1-inside-1_16_6" fill="white">
<path d="M17.9516 45.136C15.0161 45.136 12.4032 44.544 10.1129 43.36C7.85484 42.208 6.08065 40.496 4.79033 38.224C3.53226 35.92 2.90323 33.104 2.90323 29.776C2.90323 27.792 3.16129 25.808 3.67742 23.824C4.19355 21.84 4.8871 19.936 5.75807 18.112C6.66129 16.288 7.66129 14.608 8.75807 13.072C8.2742 11.152 8.03226 9.072 8.03226 6.832C8.03226 5.136 8.22581 3.52 8.61291 1.984C8.74194 1.536 8.96774 1.312 9.29032 1.312C9.54839 1.312 9.66129 1.472 9.62904 1.792C9.53226 2.432 9.45162 3.12 9.3871 3.856C9.32258 4.56 9.29032 5.408 9.29032 6.4C9.29032 8.256 9.46775 10.016 9.82258 11.68C10.1452 11.264 10.4677 10.88 10.7903 10.528C12.1129 9.088 13.6774 7.744 15.4839 6.496C17.2903 5.216 19.2903 4.192 21.4839 3.424C23.7097 2.656 26.0645 2.272 28.5484 2.272C30.871 2.272 33 2.704 34.9355 3.568C36.871 4.4 38.4194 5.616 39.5806 7.216C40.7742 8.784 41.371 10.688 41.371 12.928C41.371 14.336 40.9839 15.776 40.2097 17.248C39.4677 18.72 38.3871 20.08 36.9677 21.328C35.5806 22.544 33.8871 23.536 31.8871 24.304C29.9194 25.072 27.7097 25.456 25.2581 25.456C22.0323 25.456 19.0806 24.752 16.4032 23.344C13.7258 21.936 11.6452 19.792 10.1613 16.912C8.87097 19.184 7.91936 21.488 7.30645 23.824C6.69355 26.16 6.3871 28.384 6.3871 30.496C6.3871 33.568 6.90323 36.064 7.93549 37.984C8.96774 39.904 10.3871 41.312 12.1936 42.208C14.0323 43.136 16.129 43.6 18.4839 43.6C22.6774 43.6 26.3548 42.544 29.5161 40.432C32.7097 38.352 35.3387 35.12 37.4032 30.736C37.7903 30.736 37.9839 30.88 37.9839 31.168C35.9839 35.904 33.2419 39.408 29.7581 41.68C26.3065 43.984 22.371 45.136 17.9516 45.136ZM12.2419 13.696C11.8226 14.272 11.4194 14.864 11.0323 15.472C12.1613 18.096 13.8871 20.208 16.2097 21.808C18.5323 23.408 21.4516 24.208 24.9677 24.208C27.1936 24.208 29.1774 23.872 30.9194 23.2C32.6936 22.528 34.1774 21.632 35.371 20.512C36.5968 19.392 37.5323 18.16 38.1774 16.816C38.8226 15.44 39.1452 14.064 39.1452 12.688C39.1452 10.992 38.6774 9.504 37.7419 8.224C36.8387 6.944 35.5968 5.952 34.0161 5.248C32.4355 4.512 30.6452 4.144 28.6452 4.144C26.6452 4.144 24.629 4.56 22.5968 5.392C20.5968 6.224 18.6936 7.36 16.8871 8.8C15.1129 10.24 13.5645 11.872 12.2419 13.696ZM43.1351 40C41.8125 40 40.8286 39.536 40.1836 38.608C39.5707 37.648 39.2642 36.496 39.2642 35.152C39.2642 33.904 39.5062 32.608 39.99 31.264C40.5061 29.792 41.2157 28.448 42.119 27.232C43.0544 26.016 44.0706 25.04 45.1673 24.304C46.2964 23.536 47.4093 23.152 48.506 23.152C49.8286 23.152 50.7964 23.6 51.4093 24.496C52.0544 25.392 52.377 26.528 52.377 27.904C52.377 28.864 52.2157 29.872 51.8931 30.928C51.5706 31.984 51.1351 33.024 50.5867 34.048C51.006 34.464 51.6028 34.672 52.377 34.672C53.2802 34.672 54.0544 34.384 54.6996 33.808C55.3448 33.232 55.9738 32.208 56.5867 30.736C56.9738 30.736 57.1673 30.88 57.1673 31.168C56.5544 32.64 55.8448 33.728 55.0383 34.432C54.2641 35.104 53.2641 35.424 52.0383 35.392C51.2964 35.392 50.6835 35.184 50.1996 34.768C49.2964 36.24 48.2157 37.488 46.9577 38.512C45.7319 39.504 44.4577 40 43.1351 40ZM43.8125 38.944C44.5544 38.944 45.2964 38.64 46.0383 38.032C46.7802 37.392 47.4577 36.672 48.0706 35.872C48.6835 35.072 49.119 34.384 49.377 33.808C48.8609 32.88 48.5544 32.192 48.4577 31.744C48.3931 31.264 48.3609 30.912 48.3609 30.688C48.3609 30.08 48.5222 29.616 48.8448 29.296C49.1673 28.976 49.4899 28.816 49.8125 28.816C50.2641 28.816 50.6512 29.008 50.9738 29.392C51.0383 29.04 51.0867 28.72 51.119 28.432C51.1512 28.112 51.1673 27.808 51.1673 27.52C51.1673 26.688 51.006 26.016 50.6835 25.504C50.3931 24.96 49.9254 24.688 49.2802 24.688C48.6028 24.688 47.8931 24.976 47.1512 25.552C46.4093 26.128 45.6996 26.896 45.0222 27.856C44.377 28.816 43.8125 29.888 43.3286 31.072C42.9093 32.064 42.5867 33.008 42.3609 33.904C42.1351 34.768 42.0222 35.568 42.0222 36.304C42.0222 37.104 42.1673 37.744 42.4577 38.224C42.748 38.704 43.1996 38.944 43.8125 38.944ZM51.9363 40.384C53.0976 38.048 54.2105 35.744 55.275 33.472C56.3395 31.168 57.4363 28.976 58.5653 26.896C59.2105 25.744 59.7589 24.944 60.2105 24.496C60.6621 24.016 61.2589 23.776 62.0008 23.776C62.2589 23.776 62.5331 23.824 62.8234 23.92C63.1137 23.984 63.404 24.016 63.6944 24.016C63.8879 24.016 64.0331 24 64.1298 23.968C63.6782 24.224 63.0815 24.864 62.3395 25.888C61.6298 26.88 60.904 28.032 60.1621 29.344C59.4202 30.656 58.7589 31.888 58.1782 33.04C58.7911 32.304 59.4363 31.568 60.1137 30.832C60.7911 30.096 61.5331 29.392 62.3395 28.72C63.1137 28.048 64.0331 27.36 65.0976 26.656C66.1944 25.92 67.2589 25.312 68.2911 24.832C69.3234 24.352 70.146 24.112 70.7589 24.112C70.9847 24.112 71.146 24.128 71.2427 24.16C71.2427 24.16 71.0653 24.48 70.7105 25.12C70.3556 25.728 69.904 26.544 69.3556 27.568C68.8395 28.56 68.3073 29.632 67.7589 30.784C67.2105 31.904 66.7105 32.992 66.2589 34.048C65.8395 35.072 65.5653 35.936 65.4363 36.64C65.3395 37.056 65.2911 37.44 65.2911 37.792C65.2911 38.304 65.3879 38.64 65.5815 38.8C65.775 38.96 65.9847 39.04 66.2105 39.04C66.8234 39.04 67.4524 38.768 68.0976 38.224C68.7428 37.68 69.3557 36.992 69.9363 36.16C70.5492 35.296 71.1137 34.384 71.6298 33.424C72.146 32.464 72.5815 31.568 72.9363 30.736C73.3234 30.736 73.5169 30.88 73.5169 31.168C73.1621 32.032 72.7105 32.992 72.1621 34.048C71.646 35.072 71.0492 36.048 70.3718 36.976C69.7266 37.904 69.0008 38.672 68.1944 39.28C67.3879 39.888 66.5169 40.192 65.5815 40.192C64.9363 40.192 64.2589 39.968 63.5492 39.52C62.8718 39.072 62.5331 38.24 62.5331 37.024C62.5331 36.672 62.5653 36.304 62.6298 35.92C62.6944 35.504 62.8073 35.056 62.9686 34.576C63.2266 33.936 63.5331 33.248 63.8879 32.512C64.2427 31.776 64.8234 30.768 65.6298 29.488C65.8556 29.136 65.9847 28.864 66.0169 28.672C66.0815 28.48 66.1137 28.32 66.1137 28.192C66.1137 27.808 65.9363 27.616 65.5815 27.616C65.2911 27.616 64.8556 27.776 64.275 28.096C63.7266 28.416 63.0331 28.976 62.1944 29.776C61.3879 30.544 60.4202 31.632 59.2911 33.04C58.1944 34.448 56.9202 36.528 55.4685 39.28C55.2427 39.696 54.9847 39.92 54.6944 39.952C54.4363 39.984 54.0653 40.016 53.5815 40.048C53.2589 40.08 52.9524 40.096 52.6621 40.096C52.3718 40.128 52.1298 40.224 51.9363 40.384ZM82.9472 14.656C82.5278 15.264 82.0601 16.032 81.544 16.96C81.0278 17.888 80.544 18.784 80.0923 19.648C79.673 20.512 79.3504 21.168 79.1246 21.616H83.5762C83.5762 21.744 83.5117 21.952 83.3827 22.24C83.2859 22.528 83.0762 22.736 82.7536 22.864H78.544C78.1569 23.728 77.7052 24.768 77.1891 25.984C76.7052 27.2 76.2214 28.464 75.7375 29.776C75.2859 31.088 74.8988 32.32 74.5762 33.472C74.2859 34.592 74.1407 35.504 74.1407 36.208C74.1407 37.168 74.2698 37.888 74.5278 38.368C74.7859 38.816 75.2536 39.04 75.9311 39.04C76.802 39.04 77.6407 38.624 78.4472 37.792C79.2536 36.928 80.0117 35.856 80.7214 34.576C81.4633 33.296 82.1085 32.016 82.6569 30.736C83.044 30.736 83.2375 30.88 83.2375 31.168C82.8827 32.032 82.4472 32.976 81.9311 34C81.4149 35.024 80.8182 36.016 80.1407 36.976C79.4956 37.904 78.7536 38.672 77.9149 39.28C77.1085 39.856 76.2052 40.144 75.2052 40.144C73.8504 40.144 72.9311 39.776 72.4472 39.04C71.9633 38.272 71.7214 37.296 71.7214 36.112C71.7214 35.248 71.8827 34.208 72.2052 32.992C72.5278 31.744 72.9149 30.464 73.3665 29.152C73.8504 27.84 74.3182 26.624 74.7698 25.504C75.2214 24.352 75.5762 23.472 75.8343 22.864H72.7375C72.7375 22.608 72.8504 22.336 73.0762 22.048C73.302 21.76 73.544 21.616 73.802 21.616H76.3665C76.6246 21.104 76.9149 20.464 77.2375 19.696C77.5923 18.928 78.0601 18.08 78.6407 17.152C79.1246 16.384 79.7375 15.776 80.4794 15.328C81.2536 14.88 82.0762 14.656 82.9472 14.656ZM93.1653 40.144C92.4234 40.144 91.7621 39.936 91.1815 39.52C90.6331 39.104 90.3589 38.256 90.3589 36.976C90.3589 36.432 90.3911 35.92 90.4557 35.44C90.5524 34.96 90.6653 34.448 90.7944 33.904C90.504 34.384 90.1008 34.976 89.5847 35.68C89.0685 36.384 88.4879 37.072 87.8427 37.744C87.2298 38.416 86.5847 38.976 85.9073 39.424C85.2621 39.872 84.6492 40.096 84.0686 40.096C83.2298 40.096 82.5524 39.728 82.0363 38.992C81.5202 38.224 81.2621 37.232 81.2621 36.016C81.2621 34.704 81.5686 33.296 82.1815 31.792C82.7944 30.288 83.6331 28.848 84.6976 27.472C85.7621 26.096 86.9879 24.976 88.375 24.112C89.7621 23.248 91.2137 22.816 92.7298 22.816C93.4718 22.816 94.1815 22.944 94.8589 23.2C95.5363 23.424 96.1331 23.808 96.6492 24.352C96.875 24.576 96.9879 24.832 96.9879 25.12C96.9879 25.312 96.9073 25.472 96.746 25.6C96.5847 25.728 96.375 25.76 96.1169 25.696C95.7621 24.576 95.004 24.016 93.8427 24.016C93.2944 24.016 92.6653 24.192 91.9557 24.544C91.0847 24.992 90.1492 25.712 89.1492 26.704C88.1815 27.664 87.2621 28.768 86.3911 30.016C85.5524 31.232 84.8589 32.464 84.3105 33.712C83.7621 34.96 83.4879 36.096 83.4879 37.12C83.4879 38.176 83.8911 38.704 84.6976 38.704C85.4073 38.704 86.1331 38.368 86.875 37.696C87.6492 37.024 88.375 36.192 89.0524 35.2C89.7621 34.176 90.4073 33.168 90.9879 32.176C91.5686 31.184 92.0202 30.384 92.3427 29.776C92.8266 28.912 93.2782 28.192 93.6976 27.616C94.1169 27.04 94.7137 26.752 95.4879 26.752C95.8427 26.752 96.1976 26.8 96.5524 26.896C96.9073 26.992 97.2782 27.008 97.6653 26.944C96.6976 27.904 95.8427 29.04 95.1008 30.352C94.3911 31.664 93.8427 32.96 93.4557 34.24C93.0686 35.488 92.875 36.544 92.875 37.408C92.875 38.368 93.1976 38.848 93.8427 38.848C94.3589 38.848 94.9073 38.56 95.4879 37.984C96.1008 37.408 96.6815 36.688 97.2298 35.824C97.8105 34.928 98.3428 34.032 98.8266 33.136C99.3105 32.208 99.6976 31.408 99.9879 30.736C100.149 30.736 100.278 30.752 100.375 30.784C100.504 30.816 100.569 30.944 100.569 31.168C100.536 31.296 100.472 31.44 100.375 31.6C100.31 31.728 100.198 31.968 100.036 32.32C99.7782 32.832 99.4234 33.52 98.9718 34.384C98.5202 35.248 97.9879 36.128 97.375 37.024C96.7621 37.888 96.1008 38.624 95.3911 39.232C94.6815 39.84 93.9395 40.144 93.1653 40.144ZM104.169 40.192C102.394 40.192 101.072 39.728 100.201 38.8C99.3621 37.872 98.9427 36.624 98.9427 35.056C98.9427 34.32 99.0879 33.472 99.3782 32.512C99.6686 31.552 100.056 30.576 100.54 29.584C101.023 28.592 101.556 27.712 102.136 26.944C103.072 25.696 104.104 24.736 105.233 24.064C106.362 23.36 107.507 23.008 108.669 23.008C109.894 23.008 110.765 23.28 111.281 23.824C111.83 24.336 112.104 24.944 112.104 25.648C112.104 26.32 111.943 26.928 111.62 27.472C111.298 27.984 110.927 28.4 110.507 28.72C110.12 29.04 109.781 29.2 109.491 29.2C109.233 29.2 109.007 29.104 108.814 28.912C109.072 28.592 109.346 28.208 109.636 27.76C109.927 27.312 110.136 26.88 110.265 26.464C110.394 26.08 110.459 25.696 110.459 25.312C110.459 24.48 110.072 24.064 109.298 24.064C108.362 24.064 107.443 24.448 106.54 25.216C105.669 25.984 104.862 26.976 104.12 28.192C103.41 29.376 102.83 30.64 102.378 31.984C101.959 33.296 101.749 34.512 101.749 35.632C101.749 36.656 101.959 37.504 102.378 38.176C102.83 38.848 103.556 39.184 104.556 39.184C105.878 39.184 107.04 38.768 108.04 37.936C109.04 37.072 109.927 36 110.701 34.72C111.475 33.408 112.152 32.08 112.733 30.736C112.862 30.736 112.991 30.768 113.12 30.832C113.249 30.864 113.314 30.976 113.314 31.168C112.669 32.768 111.91 34.256 111.04 35.632C110.169 37.008 109.169 38.112 108.04 38.944C106.943 39.776 105.652 40.192 104.169 40.192ZM122.734 14.656C122.315 15.264 121.847 16.032 121.331 16.96C120.815 17.888 120.331 18.784 119.879 19.648C119.46 20.512 119.138 21.168 118.912 21.616H123.363C123.363 21.744 123.299 21.952 123.17 22.24C123.073 22.528 122.863 22.736 122.541 22.864H118.331C117.944 23.728 117.492 24.768 116.976 25.984C116.492 27.2 116.008 28.464 115.525 29.776C115.073 31.088 114.686 32.32 114.363 33.472C114.073 34.592 113.928 35.504 113.928 36.208C113.928 37.168 114.057 37.888 114.315 38.368C114.573 38.816 115.041 39.04 115.718 39.04C116.589 39.04 117.428 38.624 118.234 37.792C119.041 36.928 119.799 35.856 120.508 34.576C121.25 33.296 121.896 32.016 122.444 30.736C122.831 30.736 123.025 30.88 123.025 31.168C122.67 32.032 122.234 32.976 121.718 34C121.202 35.024 120.605 36.016 119.928 36.976C119.283 37.904 118.541 38.672 117.702 39.28C116.896 39.856 115.992 40.144 114.992 40.144C113.638 40.144 112.718 39.776 112.234 39.04C111.75 38.272 111.508 37.296 111.508 36.112C111.508 35.248 111.67 34.208 111.992 32.992C112.315 31.744 112.702 30.464 113.154 29.152C113.638 27.84 114.105 26.624 114.557 25.504C115.008 24.352 115.363 23.472 115.621 22.864H112.525C112.525 22.608 112.638 22.336 112.863 22.048C113.089 21.76 113.331 21.616 113.589 21.616H116.154C116.412 21.104 116.702 20.464 117.025 19.696C117.379 18.928 117.847 18.08 118.428 17.152C118.912 16.384 119.525 15.776 120.267 15.328C121.041 14.88 121.863 14.656 122.734 14.656Z"/>
</mask>
<path d="M17.9516 45.136C15.0161 45.136 12.4032 44.544 10.1129 43.36C7.85484 42.208 6.08065 40.496 4.79033 38.224C3.53226 35.92 2.90323 33.104 2.90323 29.776C2.90323 27.792 3.16129 25.808 3.67742 23.824C4.19355 21.84 4.8871 19.936 5.75807 18.112C6.66129 16.288 7.66129 14.608 8.75807 13.072C8.2742 11.152 8.03226 9.072 8.03226 6.832C8.03226 5.136 8.22581 3.52 8.61291 1.984C8.74194 1.536 8.96774 1.312 9.29032 1.312C9.54839 1.312 9.66129 1.472 9.62904 1.792C9.53226 2.432 9.45162 3.12 9.3871 3.856C9.32258 4.56 9.29032 5.408 9.29032 6.4C9.29032 8.256 9.46775 10.016 9.82258 11.68C10.1452 11.264 10.4677 10.88 10.7903 10.528C12.1129 9.088 13.6774 7.744 15.4839 6.496C17.2903 5.216 19.2903 4.192 21.4839 3.424C23.7097 2.656 26.0645 2.272 28.5484 2.272C30.871 2.272 33 2.704 34.9355 3.568C36.871 4.4 38.4194 5.616 39.5806 7.216C40.7742 8.784 41.371 10.688 41.371 12.928C41.371 14.336 40.9839 15.776 40.2097 17.248C39.4677 18.72 38.3871 20.08 36.9677 21.328C35.5806 22.544 33.8871 23.536 31.8871 24.304C29.9194 25.072 27.7097 25.456 25.2581 25.456C22.0323 25.456 19.0806 24.752 16.4032 23.344C13.7258 21.936 11.6452 19.792 10.1613 16.912C8.87097 19.184 7.91936 21.488 7.30645 23.824C6.69355 26.16 6.3871 28.384 6.3871 30.496C6.3871 33.568 6.90323 36.064 7.93549 37.984C8.96774 39.904 10.3871 41.312 12.1936 42.208C14.0323 43.136 16.129 43.6 18.4839 43.6C22.6774 43.6 26.3548 42.544 29.5161 40.432C32.7097 38.352 35.3387 35.12 37.4032 30.736C37.7903 30.736 37.9839 30.88 37.9839 31.168C35.9839 35.904 33.2419 39.408 29.7581 41.68C26.3065 43.984 22.371 45.136 17.9516 45.136ZM12.2419 13.696C11.8226 14.272 11.4194 14.864 11.0323 15.472C12.1613 18.096 13.8871 20.208 16.2097 21.808C18.5323 23.408 21.4516 24.208 24.9677 24.208C27.1936 24.208 29.1774 23.872 30.9194 23.2C32.6936 22.528 34.1774 21.632 35.371 20.512C36.5968 19.392 37.5323 18.16 38.1774 16.816C38.8226 15.44 39.1452 14.064 39.1452 12.688C39.1452 10.992 38.6774 9.504 37.7419 8.224C36.8387 6.944 35.5968 5.952 34.0161 5.248C32.4355 4.512 30.6452 4.144 28.6452 4.144C26.6452 4.144 24.629 4.56 22.5968 5.392C20.5968 6.224 18.6936 7.36 16.8871 8.8C15.1129 10.24 13.5645 11.872 12.2419 13.696ZM43.1351 40C41.8125 40 40.8286 39.536 40.1836 38.608C39.5707 37.648 39.2642 36.496 39.2642 35.152C39.2642 33.904 39.5062 32.608 39.99 31.264C40.5061 29.792 41.2157 28.448 42.119 27.232C43.0544 26.016 44.0706 25.04 45.1673 24.304C46.2964 23.536 47.4093 23.152 48.506 23.152C49.8286 23.152 50.7964 23.6 51.4093 24.496C52.0544 25.392 52.377 26.528 52.377 27.904C52.377 28.864 52.2157 29.872 51.8931 30.928C51.5706 31.984 51.1351 33.024 50.5867 34.048C51.006 34.464 51.6028 34.672 52.377 34.672C53.2802 34.672 54.0544 34.384 54.6996 33.808C55.3448 33.232 55.9738 32.208 56.5867 30.736C56.9738 30.736 57.1673 30.88 57.1673 31.168C56.5544 32.64 55.8448 33.728 55.0383 34.432C54.2641 35.104 53.2641 35.424 52.0383 35.392C51.2964 35.392 50.6835 35.184 50.1996 34.768C49.2964 36.24 48.2157 37.488 46.9577 38.512C45.7319 39.504 44.4577 40 43.1351 40ZM43.8125 38.944C44.5544 38.944 45.2964 38.64 46.0383 38.032C46.7802 37.392 47.4577 36.672 48.0706 35.872C48.6835 35.072 49.119 34.384 49.377 33.808C48.8609 32.88 48.5544 32.192 48.4577 31.744C48.3931 31.264 48.3609 30.912 48.3609 30.688C48.3609 30.08 48.5222 29.616 48.8448 29.296C49.1673 28.976 49.4899 28.816 49.8125 28.816C50.2641 28.816 50.6512 29.008 50.9738 29.392C51.0383 29.04 51.0867 28.72 51.119 28.432C51.1512 28.112 51.1673 27.808 51.1673 27.52C51.1673 26.688 51.006 26.016 50.6835 25.504C50.3931 24.96 49.9254 24.688 49.2802 24.688C48.6028 24.688 47.8931 24.976 47.1512 25.552C46.4093 26.128 45.6996 26.896 45.0222 27.856C44.377 28.816 43.8125 29.888 43.3286 31.072C42.9093 32.064 42.5867 33.008 42.3609 33.904C42.1351 34.768 42.0222 35.568 42.0222 36.304C42.0222 37.104 42.1673 37.744 42.4577 38.224C42.748 38.704 43.1996 38.944 43.8125 38.944ZM51.9363 40.384C53.0976 38.048 54.2105 35.744 55.275 33.472C56.3395 31.168 57.4363 28.976 58.5653 26.896C59.2105 25.744 59.7589 24.944 60.2105 24.496C60.6621 24.016 61.2589 23.776 62.0008 23.776C62.2589 23.776 62.5331 23.824 62.8234 23.92C63.1137 23.984 63.404 24.016 63.6944 24.016C63.8879 24.016 64.0331 24 64.1298 23.968C63.6782 24.224 63.0815 24.864 62.3395 25.888C61.6298 26.88 60.904 28.032 60.1621 29.344C59.4202 30.656 58.7589 31.888 58.1782 33.04C58.7911 32.304 59.4363 31.568 60.1137 30.832C60.7911 30.096 61.5331 29.392 62.3395 28.72C63.1137 28.048 64.0331 27.36 65.0976 26.656C66.1944 25.92 67.2589 25.312 68.2911 24.832C69.3234 24.352 70.146 24.112 70.7589 24.112C70.9847 24.112 71.146 24.128 71.2427 24.16C71.2427 24.16 71.0653 24.48 70.7105 25.12C70.3556 25.728 69.904 26.544 69.3556 27.568C68.8395 28.56 68.3073 29.632 67.7589 30.784C67.2105 31.904 66.7105 32.992 66.2589 34.048C65.8395 35.072 65.5653 35.936 65.4363 36.64C65.3395 37.056 65.2911 37.44 65.2911 37.792C65.2911 38.304 65.3879 38.64 65.5815 38.8C65.775 38.96 65.9847 39.04 66.2105 39.04C66.8234 39.04 67.4524 38.768 68.0976 38.224C68.7428 37.68 69.3557 36.992 69.9363 36.16C70.5492 35.296 71.1137 34.384 71.6298 33.424C72.146 32.464 72.5815 31.568 72.9363 30.736C73.3234 30.736 73.5169 30.88 73.5169 31.168C73.1621 32.032 72.7105 32.992 72.1621 34.048C71.646 35.072 71.0492 36.048 70.3718 36.976C69.7266 37.904 69.0008 38.672 68.1944 39.28C67.3879 39.888 66.5169 40.192 65.5815 40.192C64.9363 40.192 64.2589 39.968 63.5492 39.52C62.8718 39.072 62.5331 38.24 62.5331 37.024C62.5331 36.672 62.5653 36.304 62.6298 35.92C62.6944 35.504 62.8073 35.056 62.9686 34.576C63.2266 33.936 63.5331 33.248 63.8879 32.512C64.2427 31.776 64.8234 30.768 65.6298 29.488C65.8556 29.136 65.9847 28.864 66.0169 28.672C66.0815 28.48 66.1137 28.32 66.1137 28.192C66.1137 27.808 65.9363 27.616 65.5815 27.616C65.2911 27.616 64.8556 27.776 64.275 28.096C63.7266 28.416 63.0331 28.976 62.1944 29.776C61.3879 30.544 60.4202 31.632 59.2911 33.04C58.1944 34.448 56.9202 36.528 55.4685 39.28C55.2427 39.696 54.9847 39.92 54.6944 39.952C54.4363 39.984 54.0653 40.016 53.5815 40.048C53.2589 40.08 52.9524 40.096 52.6621 40.096C52.3718 40.128 52.1298 40.224 51.9363 40.384ZM82.9472 14.656C82.5278 15.264 82.0601 16.032 81.544 16.96C81.0278 17.888 80.544 18.784 80.0923 19.648C79.673 20.512 79.3504 21.168 79.1246 21.616H83.5762C83.5762 21.744 83.5117 21.952 83.3827 22.24C83.2859 22.528 83.0762 22.736 82.7536 22.864H78.544C78.1569 23.728 77.7052 24.768 77.1891 25.984C76.7052 27.2 76.2214 28.464 75.7375 29.776C75.2859 31.088 74.8988 32.32 74.5762 33.472C74.2859 34.592 74.1407 35.504 74.1407 36.208C74.1407 37.168 74.2698 37.888 74.5278 38.368C74.7859 38.816 75.2536 39.04 75.9311 39.04C76.802 39.04 77.6407 38.624 78.4472 37.792C79.2536 36.928 80.0117 35.856 80.7214 34.576C81.4633 33.296 82.1085 32.016 82.6569 30.736C83.044 30.736 83.2375 30.88 83.2375 31.168C82.8827 32.032 82.4472 32.976 81.9311 34C81.4149 35.024 80.8182 36.016 80.1407 36.976C79.4956 37.904 78.7536 38.672 77.9149 39.28C77.1085 39.856 76.2052 40.144 75.2052 40.144C73.8504 40.144 72.9311 39.776 72.4472 39.04C71.9633 38.272 71.7214 37.296 71.7214 36.112C71.7214 35.248 71.8827 34.208 72.2052 32.992C72.5278 31.744 72.9149 30.464 73.3665 29.152C73.8504 27.84 74.3182 26.624 74.7698 25.504C75.2214 24.352 75.5762 23.472 75.8343 22.864H72.7375C72.7375 22.608 72.8504 22.336 73.0762 22.048C73.302 21.76 73.544 21.616 73.802 21.616H76.3665C76.6246 21.104 76.9149 20.464 77.2375 19.696C77.5923 18.928 78.0601 18.08 78.6407 17.152C79.1246 16.384 79.7375 15.776 80.4794 15.328C81.2536 14.88 82.0762 14.656 82.9472 14.656ZM93.1653 40.144C92.4234 40.144 91.7621 39.936 91.1815 39.52C90.6331 39.104 90.3589 38.256 90.3589 36.976C90.3589 36.432 90.3911 35.92 90.4557 35.44C90.5524 34.96 90.6653 34.448 90.7944 33.904C90.504 34.384 90.1008 34.976 89.5847 35.68C89.0685 36.384 88.4879 37.072 87.8427 37.744C87.2298 38.416 86.5847 38.976 85.9073 39.424C85.2621 39.872 84.6492 40.096 84.0686 40.096C83.2298 40.096 82.5524 39.728 82.0363 38.992C81.5202 38.224 81.2621 37.232 81.2621 36.016C81.2621 34.704 81.5686 33.296 82.1815 31.792C82.7944 30.288 83.6331 28.848 84.6976 27.472C85.7621 26.096 86.9879 24.976 88.375 24.112C89.7621 23.248 91.2137 22.816 92.7298 22.816C93.4718 22.816 94.1815 22.944 94.8589 23.2C95.5363 23.424 96.1331 23.808 96.6492 24.352C96.875 24.576 96.9879 24.832 96.9879 25.12C96.9879 25.312 96.9073 25.472 96.746 25.6C96.5847 25.728 96.375 25.76 96.1169 25.696C95.7621 24.576 95.004 24.016 93.8427 24.016C93.2944 24.016 92.6653 24.192 91.9557 24.544C91.0847 24.992 90.1492 25.712 89.1492 26.704C88.1815 27.664 87.2621 28.768 86.3911 30.016C85.5524 31.232 84.8589 32.464 84.3105 33.712C83.7621 34.96 83.4879 36.096 83.4879 37.12C83.4879 38.176 83.8911 38.704 84.6976 38.704C85.4073 38.704 86.1331 38.368 86.875 37.696C87.6492 37.024 88.375 36.192 89.0524 35.2C89.7621 34.176 90.4073 33.168 90.9879 32.176C91.5686 31.184 92.0202 30.384 92.3427 29.776C92.8266 28.912 93.2782 28.192 93.6976 27.616C94.1169 27.04 94.7137 26.752 95.4879 26.752C95.8427 26.752 96.1976 26.8 96.5524 26.896C96.9073 26.992 97.2782 27.008 97.6653 26.944C96.6976 27.904 95.8427 29.04 95.1008 30.352C94.3911 31.664 93.8427 32.96 93.4557 34.24C93.0686 35.488 92.875 36.544 92.875 37.408C92.875 38.368 93.1976 38.848 93.8427 38.848C94.3589 38.848 94.9073 38.56 95.4879 37.984C96.1008 37.408 96.6815 36.688 97.2298 35.824C97.8105 34.928 98.3428 34.032 98.8266 33.136C99.3105 32.208 99.6976 31.408 99.9879 30.736C100.149 30.736 100.278 30.752 100.375 30.784C100.504 30.816 100.569 30.944 100.569 31.168C100.536 31.296 100.472 31.44 100.375 31.6C100.31 31.728 100.198 31.968 100.036 32.32C99.7782 32.832 99.4234 33.52 98.9718 34.384C98.5202 35.248 97.9879 36.128 97.375 37.024C96.7621 37.888 96.1008 38.624 95.3911 39.232C94.6815 39.84 93.9395 40.144 93.1653 40.144ZM104.169 40.192C102.394 40.192 101.072 39.728 100.201 38.8C99.3621 37.872 98.9427 36.624 98.9427 35.056C98.9427 34.32 99.0879 33.472 99.3782 32.512C99.6686 31.552 100.056 30.576 100.54 29.584C101.023 28.592 101.556 27.712 102.136 26.944C103.072 25.696 104.104 24.736 105.233 24.064C106.362 23.36 107.507 23.008 108.669 23.008C109.894 23.008 110.765 23.28 111.281 23.824C111.83 24.336 112.104 24.944 112.104 25.648C112.104 26.32 111.943 26.928 111.62 27.472C111.298 27.984 110.927 28.4 110.507 28.72C110.12 29.04 109.781 29.2 109.491 29.2C109.233 29.2 109.007 29.104 108.814 28.912C109.072 28.592 109.346 28.208 109.636 27.76C109.927 27.312 110.136 26.88 110.265 26.464C110.394 26.08 110.459 25.696 110.459 25.312C110.459 24.48 110.072 24.064 109.298 24.064C108.362 24.064 107.443 24.448 106.54 25.216C105.669 25.984 104.862 26.976 104.12 28.192C103.41 29.376 102.83 30.64 102.378 31.984C101.959 33.296 101.749 34.512 101.749 35.632C101.749 36.656 101.959 37.504 102.378 38.176C102.83 38.848 103.556 39.184 104.556 39.184C105.878 39.184 107.04 38.768 108.04 37.936C109.04 37.072 109.927 36 110.701 34.72C111.475 33.408 112.152 32.08 112.733 30.736C112.862 30.736 112.991 30.768 113.12 30.832C113.249 30.864 113.314 30.976 113.314 31.168C112.669 32.768 111.91 34.256 111.04 35.632C110.169 37.008 109.169 38.112 108.04 38.944C106.943 39.776 105.652 40.192 104.169 40.192ZM122.734 14.656C122.315 15.264 121.847 16.032 121.331 16.96C120.815 17.888 120.331 18.784 119.879 19.648C119.46 20.512 119.138 21.168 118.912 21.616H123.363C123.363 21.744 123.299 21.952 123.17 22.24C123.073 22.528 122.863 22.736 122.541 22.864H118.331C117.944 23.728 117.492 24.768 116.976 25.984C116.492 27.2 116.008 28.464 115.525 29.776C115.073 31.088 114.686 32.32 114.363 33.472C114.073 34.592 113.928 35.504 113.928 36.208C113.928 37.168 114.057 37.888 114.315 38.368C114.573 38.816 115.041 39.04 115.718 39.04C116.589 39.04 117.428 38.624 118.234 37.792C119.041 36.928 119.799 35.856 120.508 34.576C121.25 33.296 121.896 32.016 122.444 30.736C122.831 30.736 123.025 30.88 123.025 31.168C122.67 32.032 122.234 32.976 121.718 34C121.202 35.024 120.605 36.016 119.928 36.976C119.283 37.904 118.541 38.672 117.702 39.28C116.896 39.856 115.992 40.144 114.992 40.144C113.638 40.144 112.718 39.776 112.234 39.04C111.75 38.272 111.508 37.296 111.508 36.112C111.508 35.248 111.67 34.208 111.992 32.992C112.315 31.744 112.702 30.464 113.154 29.152C113.638 27.84 114.105 26.624 114.557 25.504C115.008 24.352 115.363 23.472 115.621 22.864H112.525C112.525 22.608 112.638 22.336 112.863 22.048C113.089 21.76 113.331 21.616 113.589 21.616H116.154C116.412 21.104 116.702 20.464 117.025 19.696C117.379 18.928 117.847 18.08 118.428 17.152C118.912 16.384 119.525 15.776 120.267 15.328C121.041 14.88 121.863 14.656 122.734 14.656Z" stroke="white" mask="url(#path-1-inside-1_16_6)"/>
</svg>
