<svg width="125" height="48" viewBox="0 0 125 48" fill="none" xmlns="http://www.w3.org/2000/svg">
<path d="M15.784 47.304C13.928 47.304 12.088 47.08 10.264 46.632C8.472 46.216 6.84 45.512 5.368 44.52C3.928 43.528 2.776 42.184 1.912 40.488C1.048 38.824 0.616 36.744 0.616 34.248C0.616 32.456 0.92 30.776 1.528 29.208C2.136 27.64 2.936 26.376 3.928 25.416C4.92 24.424 5.976 23.928 7.096 23.928C7.48 23.928 7.672 24.024 7.672 24.216C7.672 24.408 7.464 24.568 7.048 24.696C6.248 24.888 5.464 25.384 4.696 26.184C3.96 26.952 3.352 27.976 2.872 29.256C2.392 30.536 2.152 32.056 2.152 33.816C2.152 35.928 2.536 37.656 3.304 39C4.104 40.344 5.128 41.4 6.376 42.168C7.624 42.936 8.936 43.464 10.312 43.752C11.72 44.072 13.048 44.232 14.296 44.232C17.816 44.232 21.032 43.672 23.944 42.552C26.888 41.464 29.528 39.944 31.864 37.992C34.232 36.04 36.28 33.8 38.008 31.272C39.768 28.712 41.224 25.976 42.376 23.064C42.408 22.968 42.44 22.872 42.472 22.776C41.96 22.808 41.528 22.856 41.176 22.92C40.824 22.984 40.488 23.08 40.168 23.208C39.464 23.464 38.936 23.592 38.584 23.592C38.392 23.592 38.296 23.464 38.296 23.208C38.296 22.76 38.52 22.296 38.968 21.816C39.448 21.304 40.024 21.032 40.696 21C40.952 21 41.304 21 41.752 21C42.232 20.968 42.728 20.952 43.24 20.952C43.848 19.416 44.504 17.832 45.208 16.2C45.912 14.568 46.6 13.016 47.272 11.544C47.944 10.072 48.536 8.792 49.048 7.704C49.56 6.616 49.928 5.848 50.152 5.4C48.392 5.592 46.568 5.768 44.68 5.928C42.792 6.056 40.936 6.28 39.112 6.6C37.288 6.888 35.56 7.368 33.928 8.04C30.92 9.288 28.728 10.936 27.352 12.984C26.008 15 25.336 17.256 25.336 19.752C25.336 21.32 25.768 22.616 26.632 23.64C27.496 24.664 28.632 25.176 30.04 25.176C31.32 25.176 32.44 24.792 33.4 24.024C34.36 23.224 35.112 22.232 35.656 21.048C36.232 19.832 36.52 18.632 36.52 17.448C36.52 17.064 36.472 16.728 36.376 16.44C36.312 16.12 36.248 15.896 36.184 15.768C36.184 15.544 36.28 15.432 36.472 15.432C36.888 15.432 37.16 15.736 37.288 16.344C37.448 16.92 37.528 17.496 37.528 18.072C37.528 19.352 37.176 20.616 36.472 21.864C35.8 23.112 34.856 24.152 33.64 24.984C32.456 25.784 31.112 26.184 29.608 26.184C28.264 26.184 27.032 25.848 25.912 25.176C24.824 24.472 23.944 23.528 23.272 22.344C22.6 21.16 22.264 19.848 22.264 18.408C22.264 16.36 22.728 14.552 23.656 12.984C24.584 11.384 25.848 10.024 27.448 8.904C29.08 7.784 30.904 6.936 32.92 6.36C34.872 5.784 36.888 5.384 38.968 5.16C41.08 4.936 43.144 4.776 45.16 4.68C47.208 4.552 49.08 4.408 50.776 4.248C51.096 3.672 51.496 3.08 51.976 2.472C52.488 1.864 53.048 1.352 53.656 0.935998C54.264 0.487998 54.888 0.263998 55.528 0.263998C56.008 0.263998 56.424 0.391998 56.776 0.647999C57.128 0.871998 57.304 1.24 57.304 1.752C57.304 2.52 57 3.16 56.392 3.672C55.816 4.152 55.08 4.52 54.184 4.776C53.288 5.032 52.408 5.224 51.544 5.352C51.192 6.024 50.776 6.968 50.296 8.184C49.816 9.4 49.288 10.76 48.712 12.264C48.168 13.736 47.608 15.24 47.032 16.776C46.488 18.28 45.976 19.688 45.496 21C46.584 21.064 47.848 21.144 49.288 21.24C50.76 21.304 52.264 21.384 53.8 21.48C55.336 21.544 56.792 21.608 58.168 21.672C59.576 21.736 60.728 21.768 61.624 21.768C61.976 20.872 62.344 19.944 62.728 18.984C64.712 14.152 66.536 10.344 68.2 7.56C69.864 4.776 71.192 3.224 72.184 2.904C73.464 2.488 74.344 2.28 74.824 2.28C75.016 2.28 75.112 2.312 75.112 2.376C75.112 2.472 74.888 2.632 74.44 2.856C74.216 2.984 73.752 3.544 73.048 4.536C72.376 5.528 71.56 6.888 70.6 8.616C69.64 10.312 68.632 12.28 67.576 14.52C66.52 16.76 65.512 19.192 64.552 21.816C65.096 21.816 65.64 21.8 66.184 21.768C66.76 21.736 67.192 21.704 67.48 21.672C67.832 21.608 68.12 21.528 68.344 21.432C68.6 21.336 68.792 21.288 68.92 21.288C69.08 21.288 69.16 21.368 69.16 21.528C69.16 21.624 69.032 21.784 68.776 22.008C68.232 22.392 67.576 22.728 66.808 23.016C66.04 23.304 65.08 23.48 63.928 23.544C63.192 25.656 62.504 27.832 61.864 30.072C61.224 32.28 60.904 34.328 60.904 36.216C60.904 36.92 61.032 37.592 61.288 38.232C61.544 38.872 62.024 39.192 62.728 39.192C63.56 39.192 64.472 38.744 65.464 37.848C66.456 36.92 67.432 35.736 68.392 34.296C69.352 32.856 70.152 31.336 70.792 29.736C71.176 29.736 71.368 29.88 71.368 30.168C70.6 31.928 69.688 33.64 68.632 35.304C67.608 36.968 66.472 38.328 65.224 39.384C64.008 40.472 62.728 41.016 61.384 41.016C60.328 41.016 59.464 40.632 58.792 39.864C58.152 39.096 57.832 37.96 57.832 36.456C57.832 34.984 58.12 33.112 58.696 30.84C59.304 28.568 60.072 26.136 61 23.544C60.04 23.512 58.856 23.464 57.448 23.4C56.04 23.336 54.552 23.272 52.984 23.208C51.416 23.112 49.912 23.032 48.472 22.968C47.032 22.904 45.832 22.856 44.872 22.824C44.744 23.208 44.616 23.576 44.488 23.928C44.36 24.28 44.248 24.6 44.152 24.888C43.192 27.704 41.848 30.44 40.12 33.096C38.424 35.752 36.376 38.152 33.976 40.296C31.608 42.44 28.888 44.136 25.816 45.384C22.776 46.664 19.432 47.304 15.784 47.304ZM52.456 4.152C52.776 4.088 53.048 4.024 53.272 3.96C53.528 3.896 53.768 3.832 53.992 3.768C54.568 3.576 54.968 3.352 55.192 3.096C55.448 2.84 55.576 2.616 55.576 2.424C55.576 2.04 55.352 1.848 54.904 1.848C54.68 1.848 54.408 1.944 54.088 2.136C53.768 2.328 53.448 2.648 53.128 3.096C53 3.288 52.872 3.48 52.744 3.672C52.648 3.832 52.552 3.992 52.456 4.152ZM73.6495 39C72.3375 39 71.3615 38.536 70.7215 37.608C70.1135 36.648 69.8095 35.496 69.8095 34.152C69.8095 32.904 70.0495 31.608 70.5295 30.264C71.0415 28.792 71.7455 27.448 72.6415 26.232C73.5695 25.016 74.5775 24.04 75.6655 23.304C76.7855 22.536 77.8895 22.152 78.9775 22.152C80.2895 22.152 81.2495 22.6 81.8575 23.496C82.4975 24.392 82.8175 25.528 82.8175 26.904C82.8175 27.864 82.6575 28.872 82.3375 29.928C82.0175 30.984 81.5855 32.024 81.0415 33.048C81.4575 33.464 82.0495 33.672 82.8175 33.672C83.7135 33.672 84.4815 33.384 85.1215 32.808C85.7615 32.232 86.3855 31.208 86.9935 29.736C87.3775 29.736 87.5695 29.88 87.5695 30.168C86.9615 31.64 86.2575 32.728 85.4575 33.432C84.6895 34.104 83.6975 34.424 82.4815 34.392C81.7455 34.392 81.1375 34.184 80.6575 33.768C79.7615 35.24 78.6895 36.488 77.4415 37.512C76.2255 38.504 74.9615 39 73.6495 39ZM74.3215 37.944C75.0575 37.944 75.7935 37.64 76.5295 37.032C77.2655 36.392 77.9375 35.672 78.5455 34.872C79.1535 34.072 79.5855 33.384 79.8415 32.808C79.3295 31.88 79.0255 31.192 78.9295 30.744C78.8655 30.264 78.8335 29.912 78.8335 29.688C78.8335 29.08 78.9935 28.616 79.3135 28.296C79.6335 27.976 79.9535 27.816 80.2735 27.816C80.7215 27.816 81.1055 28.008 81.4255 28.392C81.4895 28.04 81.5375 27.72 81.5695 27.432C81.6015 27.112 81.6175 26.808 81.6175 26.52C81.6175 25.688 81.4575 25.016 81.1375 24.504C80.8495 23.96 80.3855 23.688 79.7455 23.688C79.0735 23.688 78.3695 23.976 77.6335 24.552C76.8975 25.128 76.1935 25.896 75.5215 26.856C74.8815 27.816 74.3215 28.888 73.8415 30.072C73.4255 31.064 73.1055 32.008 72.8815 32.904C72.6575 33.768 72.5455 34.568 72.5455 35.304C72.5455 36.104 72.6895 36.744 72.9775 37.224C73.2655 37.704 73.7135 37.944 74.3215 37.944ZM82.3322 39.24C83.5162 36.968 84.6363 34.696 85.6923 32.424C86.7483 30.12 87.8203 27.944 88.9083 25.896C89.5483 24.744 90.0763 23.944 90.4922 23.496C90.9403 23.016 91.5323 22.776 92.2683 22.776C92.5243 22.776 92.7963 22.824 93.0843 22.92C93.3723 22.984 93.6603 23.016 93.9483 23.016C94.1403 23.016 94.2843 23 94.3803 22.968C93.9323 23.224 93.3563 23.864 92.6523 24.888C91.9483 25.88 91.2283 27.032 90.4922 28.344C89.7563 29.656 89.1003 30.888 88.5243 32.04C89.1323 31.304 89.7563 30.568 90.3963 29.832C91.0683 29.096 91.8043 28.392 92.6043 27.72C93.3083 27.112 94.0443 26.456 94.8123 25.752C95.6123 25.016 96.3963 24.392 97.1643 23.88C97.9323 23.368 98.6043 23.112 99.1803 23.112C99.4043 23.112 99.5483 23.128 99.6123 23.16C100.22 23.416 100.524 23.832 100.524 24.408C100.524 24.6 100.444 24.888 100.284 25.272C99.8683 26.36 99.3243 27.48 98.6523 28.632C98.0123 29.752 97.4043 30.888 96.8282 32.04C97.3083 31.464 97.9003 30.76 98.6043 29.928C99.3403 29.096 100.076 28.36 100.812 27.72C101.516 27.08 102.412 26.408 103.5 25.704C104.588 25 105.66 24.392 106.716 23.88C107.772 23.368 108.62 23.112 109.26 23.112C109.484 23.112 109.644 23.128 109.74 23.16C109.74 23.16 109.564 23.48 109.212 24.12C108.86 24.728 108.412 25.544 107.868 26.568C107.356 27.56 106.828 28.632 106.284 29.784C105.74 30.904 105.244 31.992 104.796 33.048C104.38 34.072 104.108 34.936 103.98 35.64C103.884 36.056 103.836 36.44 103.836 36.792C103.836 37.304 103.932 37.64 104.124 37.8C104.316 37.96 104.524 38.04 104.748 38.04C105.388 38.04 106.012 37.768 106.62 37.224C107.26 36.68 107.884 35.992 108.492 35.16C109.1 34.296 109.644 33.384 110.124 32.424C110.636 31.464 111.068 30.568 111.42 29.736C111.804 29.736 111.996 29.88 111.996 30.168C111.644 31.032 111.196 31.992 110.652 33.048C110.14 34.072 109.548 35.048 108.876 35.976C108.204 36.904 107.468 37.672 106.668 38.28C105.868 38.888 105.004 39.192 104.076 39.192C103.404 39.192 102.764 38.968 102.156 38.52C101.58 38.072 101.292 37.24 101.292 36.024C101.292 34.712 101.596 33.4 102.204 32.088C102.844 30.776 103.5 29.576 104.172 28.488C104.492 27.944 104.652 27.512 104.652 27.192C104.652 26.808 104.46 26.616 104.076 26.616C103.756 26.616 103.308 26.776 102.732 27.096C102.188 27.416 101.5 27.976 100.668 28.776C100.156 29.256 99.5483 29.928 98.8443 30.792C98.1723 31.624 97.4843 32.536 96.7803 33.528C96.0763 34.52 95.4683 35.496 94.9563 36.456C94.4443 37.416 94.1083 38.264 93.9483 39C93.4683 39 93.0843 38.808 92.7963 38.424C92.5083 38.008 92.3643 37.528 92.3643 36.984C92.3643 36.888 92.3643 36.792 92.3643 36.696C92.3643 36.6 92.3803 36.488 92.4123 36.36C92.5723 35.368 92.8283 34.536 93.1803 33.864C93.5323 33.16 93.9323 32.344 94.3803 31.416C94.6043 31 94.8603 30.52 95.1483 29.976C95.4363 29.4 95.6923 28.856 95.9163 28.344C96.1403 27.8 96.2523 27.352 96.2523 27C96.2523 26.68 96.1243 26.52 95.8683 26.52C95.5803 26.52 95.1963 26.664 94.7163 26.952C94.2683 27.24 93.8363 27.576 93.4203 27.96C93.0043 28.312 92.6843 28.584 92.4603 28.776C91.6603 29.544 90.6843 30.648 89.5323 32.088C88.4123 33.528 87.1803 35.576 85.8363 38.232C85.6443 38.584 85.4203 38.808 85.1643 38.904C84.9083 38.968 84.5083 39 83.9642 39C83.6122 39 83.3242 39 83.1002 39C82.8442 39.032 82.5882 39.112 82.3322 39.24ZM114.866 39.192C113.682 39.192 112.61 38.808 111.65 38.04C110.722 37.272 110.258 36.104 110.258 34.536C110.258 33.224 110.546 31.832 111.122 30.36C111.73 28.888 112.514 27.512 113.474 26.232C114.466 24.92 115.554 23.864 116.738 23.064C117.954 22.232 119.17 21.816 120.386 21.816C120.994 21.816 121.586 21.992 122.162 22.344C122.738 22.696 123.026 23.304 123.026 24.168C123.026 24.968 122.722 25.848 122.114 26.808C121.506 27.768 120.642 28.664 119.522 29.496C119.042 29.848 118.434 30.184 117.698 30.504C116.962 30.824 116.226 31.096 115.49 31.32C114.754 31.512 114.146 31.608 113.666 31.608C113.506 31.992 113.346 32.504 113.186 33.144C113.058 33.784 112.994 34.44 112.994 35.112C112.994 35.912 113.154 36.632 113.474 37.272C113.794 37.912 114.386 38.232 115.25 38.232C116.306 38.232 117.282 37.928 118.178 37.32C119.106 36.712 119.922 35.944 120.626 35.016C121.362 34.088 121.986 33.144 122.498 32.184C123.01 31.224 123.41 30.408 123.698 29.736C124.082 29.736 124.274 29.88 124.274 30.168C123.858 31.064 123.378 32.04 122.834 33.096C122.322 34.152 121.698 35.144 120.962 36.072C120.258 36.968 119.394 37.72 118.37 38.328C117.378 38.904 116.21 39.192 114.866 39.192ZM114.002 30.744C114.45 30.744 115.202 30.584 116.258 30.264C117.314 29.912 118.274 29.368 119.138 28.632C119.97 27.896 120.61 27.096 121.058 26.232C121.506 25.336 121.73 24.584 121.73 23.976C121.73 23.272 121.474 22.92 120.962 22.92C120.578 22.92 120.05 23.176 119.378 23.688C118.706 24.2 117.874 25.064 116.882 26.28C116.274 27.048 115.698 27.88 115.154 28.776C114.61 29.672 114.226 30.328 114.002 30.744Z" fill="black"/>
</svg>
