<svg width="444" height="670" viewBox="0 0 444 670" fill="none" xmlns="http://www.w3.org/2000/svg">
<rect x="61" y="58.1471" width="325" height="553" fill="#1A1010"/>
<g clip-path="url(#clip0_130_2)">
<path d="M2.94017 47.4922L35.0358 659.913L92.9563 656.877L60.8607 44.4567L2.94017 47.4922Z" fill="url(#paint0_radial_130_2)"/>
<path d="M65.7773 221.91L67.8404 177.637L66.6313 154.567L63.2492 173.672L63.6465 223.074L67.1544 258.642L65.8481 275.535L63.8336 299.827L66.5076 288.119L68.9586 261.702L65.7773 221.91Z" fill="#82411D"/>
<path d="M37.2998 556.743L44.8713 659.397L55.2534 658.853L51.8459 593.836L45.496 556.313L41.7589 485.004L45.678 434.324L35.6585 368.602L31.1129 334.139L29.6479 368.917L36.3888 434.811L37.2998 556.743Z" fill="#82411D"/>
<path d="M51.791 592.787L55.1984 657.804L57.3841 657.69L53.9767 592.673L48.3931 559.316L44.3262 481.715L48.9565 434.152L33.9548 336.093L31.2228 336.237L45.678 434.324L41.594 481.858L45.6609 559.459L51.791 592.787Z" fill="#FF9D64"/>
<path d="M75.0153 596.828L80.935 657.507L90.7705 656.992L81.2458 600.707L79.0834 496.718L74.4859 471.722L76.1157 440.09L65.2719 358.638L72.8372 440.262L68.4753 472.037L75.6401 493.744L75.0153 596.828Z" fill="#82411D"/>
<path d="M81.3557 602.805L90.2242 657.02L92.4098 656.906L82.4485 602.748L80.2313 497.709L75.5788 471.664L77.8649 442.101L66.4747 360.678L65.3819 360.735L76.0608 439.041L74.486 471.722L79.1384 497.766L81.3557 602.805Z" fill="#FF9D64"/>
<path d="M31.2883 191.12L29.7148 46.089L41.7361 45.459L40.0311 190.662L42.1086 282.578L50.2862 313.155L48.055 343.767L53.3639 371.88L57.4149 396.905L49.5389 372.081L43.1372 344.024L43.3994 307.207L37.8739 285.414L31.2883 191.12Z" fill="#82411D"/>
<path d="M39.9762 189.613L41.736 45.4591L42.8289 45.4018L40.9041 186.41L43.2281 283.03L51.379 313.098L49.1478 343.71L58.3978 394.751L57.36 395.856L48.055 343.767L50.2861 313.155L42.1353 283.087L39.9762 189.613Z" fill="#FF9D64"/>
<path d="M16.0542 46.805L9.49716 47.1487L7.47952 60.9245L10.2211 92.3272L8.8598 108.172L16.312 177.183L19.2702 202.265L21.0289 235.822L22.5488 202.093L22.869 176.839L17.4377 104.567L16.0542 46.805Z" fill="#82411D"/>
<path d="M17.4377 104.567L16.0543 46.805L16.6006 46.7764L17.9841 104.539L20.454 141.213L23.3055 174.714L23.5317 199.939L22.1218 235.765L21.0289 235.822L22.4389 199.996L22.8691 176.839L20.0175 143.339L17.4377 104.567Z" fill="#FF9D64"/>
<path d="M65.7773 221.91L67.8404 177.637L68.2251 184.978L66.2688 220.833L69.45 260.625L67.5454 287.013L64.9264 299.769L63.8336 299.827L66.5076 288.119L68.9586 261.702L65.7773 221.91Z" fill="#FF9D64"/>
<ellipse cx="12.476" cy="12.1459" rx="12.476" ry="12.1459" transform="matrix(1 -0.00262954 -0.00336649 1 51.4359 621.8)" fill="#666565"/>
<rect width="3.31019" height="16.7046" transform="matrix(0.719091 -0.697177 0.716392 0.695439 56.7146 628.948)" fill="#474747"/>
<rect width="3.2927" height="16.722" transform="matrix(0.716077 0.695763 -0.718774 0.697503 68.7191 626.626)" fill="#474747"/>
</g>
<g clip-path="url(#clip1_130_2)">
<path d="M378.57 34.9403L367.509 668.639L425.5 669.652L436.561 35.9525L378.57 34.9403Z" fill="url(#paint1_radial_130_2)"/>
<path d="M428.984 219.258L434.156 173.76L434.572 149.888L429.855 169.344L426.776 220.305L427.774 257.227L425.282 274.551L421.564 299.451L425.055 287.572L429.358 260.511L428.984 219.258Z" fill="#82411D"/>
<path d="M377.024 562.433L377.356 668.811L387.751 668.993L388.925 601.716L385.23 562.576L386.518 488.789L393.993 436.819L388.621 368.343L386.51 332.487L382.603 368.238L384.692 436.657L377.024 562.433Z" fill="#82411D"/>
<path d="M388.944 600.631L387.77 667.908L389.958 667.946L391.133 600.67L387.909 565.88L389.311 485.582L397.275 436.877L389.208 334.705L386.473 334.658L393.993 436.819L386.575 485.534L385.174 565.832L388.944 600.631Z" fill="#FF9D64"/>
<path d="M411.827 606.458L413.464 669.441L423.312 669.613L417.769 610.903L422.927 503.536L420.099 477.436L423.95 444.94L418.862 360.188L420.667 444.883L414.081 477.331L419.701 500.223L411.827 606.458Z" fill="#82411D"/>
<path d="M417.732 613.073L422.765 669.604L424.953 669.642L418.826 613.093L424.002 504.64L421.193 477.455L425.553 447.139L419.918 362.377L418.824 362.358L423.969 443.855L420.099 477.436L422.908 504.621L417.732 613.073Z" fill="#FF9D64"/>
<path d="M396.745 185.047L405.377 35.4082L417.413 35.6183L405.499 185.2L401.106 280.114L407.112 312.224L402.734 343.625L406.052 372.989L408.333 399.079L402.222 372.922L397.81 343.539L400.661 305.598L396.682 282.735L396.745 185.047Z" fill="#82411D"/>
<path d="M405.518 184.115L417.413 35.6183L418.507 35.6374L406.669 180.879L402.191 280.66L408.207 312.243L403.828 343.644L409.465 396.928L408.352 397.994L402.734 343.625L407.112 312.224L401.097 280.641L405.518 184.115Z" fill="#FF9D64"/>
<path d="M391.7 35.1696L385.135 35.055L382.153 49.1135L382.679 81.6856L380.207 97.924L382.786 169.607L383.973 195.679L383.367 230.402L387.256 195.736L389.351 169.722L389.017 94.8215L391.7 35.1696Z" fill="#82411D"/>
<path d="M389.017 94.8214L391.7 35.1695L392.247 35.1791L389.564 94.831L389.448 132.819L389.936 167.561L388.388 193.585L384.461 230.421L383.367 230.402L387.294 193.566L389.352 169.722L388.863 134.98L389.017 94.8214Z" fill="#FF9D64"/>
<path d="M428.984 219.258L434.156 173.76L434.023 181.356L429.55 218.183L429.924 259.436L426.168 286.506L422.658 299.47L421.564 299.451L425.055 287.572L429.358 260.511L428.984 219.258Z" fill="#FF9D64"/>
<ellipse cx="12.4991" cy="12.5304" rx="12.4991" ry="12.5304" transform="matrix(0.997527 0.0702913 -0.0697311 0.997566 386.507 630.518)" fill="#666565"/>
<rect width="3.35465" height="16.9879" transform="matrix(0.753992 -0.656659 0.655031 0.755797 391.312 638.259)" fill="#474747"/>
<rect width="3.35631" height="16.9862" transform="matrix(0.654742 0.756047 -0.753744 0.656944 403.444 636.729)" fill="#474747"/>
</g>
<g clip-path="url(#clip2_130_2)">
<path d="M434.206 2.50073e-06L9 14.8485L11.0242 72.8132L436.231 57.9647L434.206 2.50073e-06Z" fill="url(#paint2_radial_130_2)"/>
<path d="M313.03 57.8869L343.763 61.1937L359.781 60.6344L346.522 56.7173L312.226 55.7249L287.528 58.23L275.802 56.4494L258.941 53.7532L267.065 56.7546L285.401 59.9468L313.03 57.8869Z" fill="#82411D"/>
<path d="M80.6205 20.0125L9.34372 24.6916L9.70654 35.0815L54.8483 33.5051L80.9069 28.2151L130.417 26.4861L165.595 31.8278L211.236 23.6639L235.167 20.0907L211.026 17.6487L165.27 22.5316L80.6205 20.0125Z" fill="#82411D"/>
<path d="M55.5764 33.4797L10.4346 35.0561L10.511 37.2434L55.6528 35.6671L78.8181 31.0256L132.697 29.1441L165.709 35.1088L233.807 22.8757L233.711 20.1416L165.595 31.8278L132.602 26.4098L78.7226 28.2913L55.5764 33.4797Z" fill="#FF9D64"/>
<path d="M52.738 56.5739L10.604 60.7828L10.9478 70.6258L50.0356 62.6909L122.231 63.4547L139.591 59.5635L161.548 62.0818L218.111 53.5366L161.434 58.8008L139.381 53.5483L124.301 60.0975L52.738 56.5739Z" fill="#82411D"/>
<path d="M48.5794 62.7417L10.9286 70.0791L11.005 72.2663L48.6176 63.8353L121.542 64.5739L139.629 60.6571L160.15 63.7731L216.693 54.681L216.654 53.5874L162.277 62.0563L139.591 59.5635L121.503 63.4802L48.5794 62.7417Z" fill="#FF9D64"/>
<path d="M334.455 24.2885L435.142 26.795L435.562 38.8254L334.761 33.0379L270.947 32.5288L249.708 39.8406L228.459 36.7501L208.934 41.2644L191.556 44.6088L208.801 37.4366L228.287 31.8285L253.847 33.1259L268.984 28.2174L334.455 24.2885Z" fill="#82411D"/>
<path d="M335.489 33.0125L435.562 38.8253L435.6 39.9191L337.711 34.0299L270.631 33.6348L249.746 40.9342L228.497 37.8437L193.05 45.6516L192.284 44.5833L228.459 36.7501L249.708 39.8405L270.593 32.5411L335.489 33.0125Z" fill="#FF9D64"/>
<path d="M434.665 13.1241L434.436 6.56204L424.875 4.15839L403.07 6.01483L392.072 4.20887L344.152 9.71482L326.735 11.9655L303.436 12.7792L326.85 15.2466L344.381 16.2769L394.562 12.882L434.665 13.1241Z" fill="#82411D"/>
<path d="M394.562 12.882L434.665 13.1241L434.684 13.6709L394.581 13.4288L369.117 14.8655L345.857 16.7728L328.344 16.2894L303.474 13.8728L303.436 12.7791L328.306 15.1957L344.381 16.2769L367.642 14.3695L394.562 12.882Z" fill="#FF9D64"/>
<path d="M313.03 57.8869L343.763 61.1937L338.666 61.3717L313.777 58.4083L286.148 60.4681L267.831 57.8228L258.979 54.8469L258.941 53.7532L267.065 56.7546L285.401 59.9468L313.03 57.8869Z" fill="#FF9D64"/>
<ellipse cx="417.991" cy="27.4544" rx="11" ry="12.5" transform="rotate(-2 417.991 27.4544)" fill="#666565"/>
<rect width="3.15598" height="15.9778" transform="matrix(0.634026 -0.773312 0.686425 0.727201 411.511 22.5447)" fill="#474747"/>
<rect width="3.15598" height="15.9778" transform="matrix(0.686425 0.727201 -0.634026 0.773312 421.977 19.8086)" fill="#474747"/>
<ellipse cx="27.3098" cy="44.7976" rx="11" ry="12.5" transform="rotate(-2 27.3098 44.7976)" fill="#666565"/>
<rect width="3.15598" height="15.9778" transform="matrix(0.634026 -0.773312 0.686425 0.727201 20.8291 39.8879)" fill="#474747"/>
<rect width="3.15598" height="15.9778" transform="matrix(0.686425 0.727201 -0.634026 0.773312 31.2953 37.1516)" fill="#474747"/>
</g>
<g clip-path="url(#clip3_130_2)">
<path d="M443.66 610.874L1.01221 603.147L-3.25032e-05 661.138L442.648 668.865L443.66 610.874Z" fill="url(#paint3_radial_130_2)"/>
<path d="M314.629 662.252L346.387 667.184L363.062 667.476L349.495 662.861L313.909 660.05L288.11 661.242L276.021 658.842L258.645 655.255L266.926 658.683L285.808 662.844L314.629 662.252Z" fill="#82411D"/>
<path d="M75.1585 612.103L0.840342 612.995L0.658903 623.389L47.6523 624.21L75.0152 620.309L126.556 621.209L162.824 628.409L210.69 622.677L235.75 620.379L210.795 616.659L162.986 619.108L75.1585 612.103Z" fill="#82411D"/>
<path d="M48.4103 624.223L1.41687 623.403L1.37868 625.591L48.3721 626.411L72.6936 623.005L128.783 623.984L162.767 631.691L234.187 623.087L234.234 620.352L162.824 628.409L128.83 621.248L72.7414 620.269L48.4103 624.223Z" fill="#FF9D64"/>
<path d="M44.2194 647.134L0.210064 649.102L0.0381757 658.95L41.0825 653.099L116.063 657.692L134.311 654.727L156.993 658.406L216.228 652.873L157.05 655.124L134.416 648.709L118.394 654.449L44.2194 647.134Z" fill="#82411D"/>
<path d="M39.5666 653.073L0.0477425 658.403L0.00954611 660.591L39.5475 654.167L115.286 658.773L134.292 655.821L155.448 660.021L214.693 653.941L214.712 652.847L157.751 658.419L134.311 654.727L115.305 657.678L39.5666 653.073Z" fill="#FF9D64"/>
<path d="M338.699 629.837L443.192 637.681L442.982 649.717L338.546 638.59L272.262 634.697L249.798 640.872L227.884 636.659L207.352 640.131L189.114 642.549L207.419 636.302L227.97 631.735L254.46 634.386L270.454 630.288L338.699 629.837Z" fill="#82411D"/>
<path d="M339.304 638.604L442.982 649.717L442.963 650.811L341.559 639.737L271.874 635.785L249.779 641.966L227.865 637.753L190.61 643.67L189.872 642.562L227.884 636.659L249.798 640.872L271.893 634.691L339.304 638.604Z" fill="#FF9D64"/>
<path d="M443.431 624.004L443.545 617.439L433.74 614.531L410.982 615.228L399.651 612.842L349.559 615.798L331.339 617.122L307.084 616.698L331.282 620.404L349.444 622.363L401.772 621.635L443.431 624.004Z" fill="#82411D"/>
<path d="M401.772 621.635L443.431 624.004L443.421 624.551L401.762 622.182L375.224 622.266L350.95 622.937L332.778 621.525L307.065 617.793L307.084 616.698L332.797 620.431L349.444 622.363L373.718 621.692L401.772 621.635Z" fill="#FF9D64"/>
<path d="M314.629 662.252L346.387 667.184L341.081 667.092L315.378 662.812L286.556 663.404L267.664 659.791L258.626 656.349L258.645 655.255L266.926 658.683L285.808 662.844L314.629 662.252Z" fill="#FF9D64"/>
<ellipse cx="427.012" cy="639.314" rx="11" ry="12.5" transform="rotate(1 427.012 639.314)" fill="#666565"/>
<rect width="3.15598" height="15.9778" transform="matrix(0.673629 -0.73907 0.647426 0.762129 420.797 634.072)" fill="#474747"/>
<rect width="3.15598" height="15.9778" transform="matrix(0.647426 0.762129 -0.673629 0.73907 431.392 631.887)" fill="#474747"/>
<ellipse cx="15.9047" cy="633.912" rx="11" ry="12.5" transform="rotate(1 15.9047 633.912)" fill="#666565"/>
<rect width="3.15598" height="15.9778" transform="matrix(0.673629 -0.73907 0.647425 0.762129 9.69019 628.67)" fill="#474747"/>
<rect width="3.15598" height="15.9778" transform="matrix(0.647425 0.762129 -0.673629 0.73907 20.2853 626.485)" fill="#474747"/>
</g>
<defs>
<radialGradient id="paint0_radial_130_2" cx="0" cy="0" r="1" gradientUnits="userSpaceOnUse" gradientTransform="translate(47.9482 352.185) rotate(-93) scale(306.63 159.774)">
<stop stop-color="#DF783D"/>
<stop offset="1" stop-color="#A75120"/>
</radialGradient>
<radialGradient id="paint1_radial_130_2" cx="0" cy="0" r="1" gradientUnits="userSpaceOnUse" gradientTransform="translate(402.035 352.296) rotate(-89) scale(316.898 159.774)">
<stop stop-color="#DF783D"/>
<stop offset="1" stop-color="#A75120"/>
</radialGradient>
<radialGradient id="paint2_radial_130_2" cx="0" cy="0" r="1" gradientUnits="userSpaceOnUse" gradientTransform="translate(222.615 36.4066) rotate(-2) scale(212.733 159.774)">
<stop stop-color="#DF783D"/>
<stop offset="1" stop-color="#A75120"/>
</radialGradient>
<radialGradient id="paint3_radial_130_2" cx="0" cy="0" r="1" gradientUnits="userSpaceOnUse" gradientTransform="translate(221.83 636.006) rotate(1) scale(221.358 159.774)">
<stop stop-color="#DF783D"/>
<stop offset="1" stop-color="#A75120"/>
</radialGradient>
<clipPath id="clip0_130_2">
<rect width="613.261" height="58" fill="white" transform="translate(35.0358 659.913) rotate(-93)"/>
</clipPath>
<clipPath id="clip1_130_2">
<rect width="633.796" height="58" fill="white" transform="translate(367.509 668.639) rotate(-89)"/>
</clipPath>
<clipPath id="clip2_130_2">
<rect width="425.466" height="58" fill="white" transform="translate(9 14.8485) rotate(-2)"/>
</clipPath>
<clipPath id="clip3_130_2">
<rect width="442.715" height="58" fill="white" transform="translate(1.01221 603.147) rotate(1)"/>
</clipPath>
</defs>
</svg>
