<svg width="400" height="731" viewBox="0 0 400 731" fill="none" xmlns="http://www.w3.org/2000/svg">
<rect x="53.5581" y="63.5869" width="299.801" height="603.245" fill="#1A1010"/>
<g clip-path="url(#clip0_143_2)">
<path d="M7.47257e-06 51.9639L29.6071 720.028L83.0367 716.717L53.4296 48.6526L7.47257e-06 51.9639Z" fill="url(#paint0_radial_143_2)"/>
<path d="M57.9649 242.229L59.8681 193.934L58.7528 168.767L55.6329 189.608L55.9994 243.498L59.2353 282.299L58.0303 300.727L56.172 327.225L58.6386 314.454L60.8996 285.637L57.9649 242.229Z" fill="#82411D"/>
<path d="M31.6955 607.484L38.68 719.465L48.2571 718.872L45.1138 647.947L39.2563 607.015L35.8089 529.227L39.4241 473.943L30.1815 402.249L25.9883 364.655L24.637 402.593L30.8552 474.474L31.6955 607.484Z" fill="#82411D"/>
<path d="M45.0632 646.803L48.2064 717.728L50.2226 717.603L47.0794 646.678L41.9287 610.291L38.1771 525.639L42.4484 473.755L28.6099 366.787L26.0897 366.943L39.4241 473.943L35.6568 525.795L39.4084 610.447L45.0632 646.803Z" fill="#FF9D64"/>
<path d="M66.4869 651.211L71.9477 717.404L81.0206 716.841L72.2343 655.443L70.2396 542.005L65.9986 514.738L67.502 480.232L57.499 391.379L64.4777 480.42L60.454 515.082L67.0633 538.761L66.4869 651.211Z" fill="#82411D"/>
<path d="M72.3358 657.731L80.5167 716.873L82.5328 716.748L73.3439 657.669L71.2986 543.087L67.0068 514.676L69.1156 482.426L58.6086 393.605L57.6005 393.667L67.4514 479.088L65.9987 514.738L70.2904 543.149L72.3358 657.731Z" fill="#FF9D64"/>
<path d="M26.1501 208.641L24.6986 50.4332L35.7878 49.7459L34.2151 208.141L36.1315 308.409L43.675 341.764L41.6168 375.157L46.514 405.825L50.251 433.124L42.9856 406.044L37.0803 375.439L37.3221 335.276L32.2251 311.503L26.1501 208.641Z" fill="#82411D"/>
<path d="M34.1643 206.997L35.7877 49.7459L36.7958 49.6834L35.0203 203.503L37.1641 308.902L44.683 341.702L42.6249 375.095L51.1576 430.773L50.2003 431.98L41.6168 375.157L43.6749 341.764L36.1561 308.965L34.1643 206.997Z" fill="#FF9D64"/>
<path d="M12.0973 51.2141L6.04866 51.589L4.18746 66.6165L6.71648 100.872L5.46072 118.156L12.3351 193.438L15.064 220.799L16.6863 257.405L18.0883 220.612L18.3838 193.063L13.3735 114.225L12.0973 51.2141Z" fill="#82411D"/>
<path d="M13.3735 114.225L12.0973 51.2141L12.6013 51.1829L13.8775 114.194L16.156 154.2L18.7863 190.744L18.995 218.261L17.6944 257.343L16.6863 257.405L17.9869 218.324L18.3837 193.063L15.7533 156.52L13.3735 114.225Z" fill="#FF9D64"/>
<path d="M57.9649 242.229L59.8681 193.934L60.223 201.941L58.4183 241.054L61.3529 284.462L59.596 313.248L57.1801 327.162L56.172 327.225L58.6386 314.454L60.8996 285.637L57.9649 242.229Z" fill="#FF9D64"/>
<ellipse cx="11.6184" cy="13.1213" rx="11.6184" ry="13.1213" transform="matrix(0.998902 0.00608625 0.00376469 1.00078 44.5514 678.464)" fill="#666565"/>
<rect width="3.28691" height="16.8807" transform="matrix(0.658906 -0.754318 0.65592 0.752737 49.6034 686.214)" fill="#474747"/>
<rect width="3.36703" height="16.8009" transform="matrix(0.655301 0.753279 -0.65827 0.754874 60.649 683.718)" fill="#474747"/>
</g>
<g clip-path="url(#clip1_143_2)">
<path d="M346.505 38.2714L336.302 729.547L389.796 730.651L400 39.3756L346.505 38.2714Z" fill="url(#paint1_radial_143_2)"/>
<path d="M393.01 239.336L397.781 189.704L398.165 163.663L393.813 184.886L390.974 240.478L391.894 280.755L389.595 299.652L386.166 326.815L389.386 313.857L393.355 284.337L393.01 239.336Z" fill="#82411D"/>
<path d="M345.079 613.691L345.385 729.735L354.974 729.933L356.057 656.544L352.649 613.848L353.837 533.357L360.732 476.664L355.776 401.967L353.83 362.853L350.225 401.852L352.152 476.487L345.079 613.691Z" fill="#82411D"/>
<path d="M356.075 655.36L354.992 728.749L357.01 728.791L358.094 655.402L355.12 617.451L356.413 529.858L363.76 476.727L356.318 365.273L353.795 365.221L360.732 476.665L353.89 529.806L352.597 617.399L356.075 655.36Z" fill="#FF9D64"/>
<path d="M377.184 661.716L378.694 730.422L387.778 730.61L382.665 666.565L387.423 549.443L384.814 520.971L388.366 485.523L383.673 393.07L385.338 485.461L379.263 520.857L384.447 545.829L377.184 661.716Z" fill="#82411D"/>
<path d="M382.63 668.933L387.273 730.599L389.292 730.641L383.639 668.954L388.415 550.647L385.823 520.992L389.845 487.922L384.647 395.458L383.638 395.438L388.384 484.339L384.814 520.971L387.405 550.626L382.63 668.933Z" fill="#FF9D64"/>
<path d="M363.271 202.017L371.234 38.7819L382.337 39.0111L371.346 202.183L367.294 305.721L372.835 340.748L368.795 375.002L371.856 407.035L373.96 435.496L368.323 406.962L364.253 374.909L366.883 333.521L363.213 308.58L363.271 202.017Z" fill="#82411D"/>
<path d="M371.364 201L382.336 39.011L383.346 39.0319L372.425 197.469L368.294 306.317L373.844 340.769L369.804 375.023L375.004 433.149L373.978 434.312L368.795 375.002L372.834 340.748L367.285 306.296L371.364 201Z" fill="#FF9D64"/>
<path d="M358.617 38.5215L352.561 38.3965L349.811 53.7324L350.296 89.2639L348.015 106.978L350.395 185.174L351.489 213.614L350.93 251.492L354.517 213.677L356.451 185.299L356.142 103.593L358.617 38.5215Z" fill="#82411D"/>
<path d="M356.142 103.593L358.617 38.5215L359.122 38.5319L356.647 103.604L356.54 145.043L356.99 182.942L355.562 211.33L351.94 251.513L350.93 251.492L354.552 211.309L356.451 185.299L356 147.4L356.142 103.593Z" fill="#FF9D64"/>
<path d="M393.01 239.336L397.781 189.704L397.659 197.99L393.532 238.163L393.877 283.164L390.412 312.694L387.175 326.836L386.166 326.815L389.386 313.857L393.355 284.337L393.01 239.336Z" fill="#FF9D64"/>
<ellipse cx="11.6353" cy="13.541" rx="11.6353" ry="13.541" transform="matrix(0.99631 0.0925646 -0.0525544 0.998509 353.642 687.958)" fill="#666565"/>
<rect width="3.33983" height="17.2136" transform="matrix(0.688954 -0.708471 0.598128 0.815871 358.26 696.369)" fill="#474747"/>
<rect width="3.44161" height="17.1122" transform="matrix(0.597526 0.816308 -0.688399 0.709014 369.42 694.737)" fill="#474747"/>
</g>
<g clip-path="url(#clip2_143_2)">
<path d="M397.828 0.156597L5.58997 16.3542L7.45719 79.5855L399.695 63.3878L397.828 0.156597Z" fill="url(#paint2_radial_143_2)"/>
<path d="M286.047 63.3029L314.397 66.9103L329.173 66.3001L316.942 62.0271L285.305 60.9446L262.522 63.6773L251.705 61.7349L236.152 58.7937L243.646 62.0677L260.56 65.55L286.047 63.3029Z" fill="#82411D"/>
<path d="M71.6573 21.9877L5.90701 27.0918L6.2417 38.4258L47.8834 36.7061L71.9215 30.9354L117.593 29.0494L150.043 34.8764L192.145 25.9708L214.221 22.0729L191.951 19.409L149.744 24.7356L71.6573 21.9877Z" fill="#82411D"/>
<path d="M48.555 36.6782L6.91333 38.3978L6.98379 40.7839L48.6255 39.0643L69.9947 34.0011L119.696 31.9486L150.149 38.4553L212.966 25.1107L212.878 22.1282L150.043 34.8762L119.608 28.966L69.9066 31.0184L48.555 36.6782Z" fill="#FF9D64"/>
<path d="M45.9367 61.8707L7.06965 66.4621L7.38672 77.1994L43.4439 68.5434L110.042 69.3767L126.056 65.1319L146.311 67.879L198.487 58.5574L146.205 64.2999L125.862 58.5702L111.951 65.7144L45.9367 61.8707Z" fill="#82411D"/>
<path d="M42.1007 68.5989L7.36916 76.6029L7.43962 78.9889L42.1359 69.7919L109.406 70.5976L126.091 66.325L145.02 69.724L197.179 59.8059L197.144 58.6129L146.982 67.8513L126.056 65.132L109.37 69.4045L42.1007 68.5989Z" fill="#FF9D64"/>
<path d="M305.811 26.6519L398.691 29.3861L399.079 42.5096L306.093 36.1963L247.227 35.6409L227.634 43.617L208.033 40.2457L190.022 45.1702L173.991 48.8185L189.899 40.9946L207.875 34.877L231.453 36.2923L245.416 30.9378L305.811 26.6519Z" fill="#82411D"/>
<path d="M306.764 36.1686L399.079 42.5095L399.114 43.7026L308.815 37.2784L246.936 36.8474L227.669 44.81L208.068 41.4387L175.369 49.956L174.663 48.7907L208.033 40.2457L227.634 43.6169L246.9 35.6544L306.764 36.1686Z" fill="#FF9D64"/>
<path d="M398.251 14.4731L398.039 7.31485L389.22 4.6928L369.106 6.71792L358.961 4.74787L314.756 10.7541L298.689 13.2093L277.197 14.0968L298.795 16.7885L314.967 17.9124L361.258 14.209L398.251 14.4731Z" fill="#82411D"/>
<path d="M361.258 14.209L398.251 14.4731L398.268 15.0696L361.275 14.8055L337.785 16.3728L316.328 18.4533L300.174 17.926L277.232 15.2899L277.197 14.0968L300.138 16.733L314.967 17.9123L336.425 15.8317L361.258 14.209Z" fill="#FF9D64"/>
<path d="M286.047 63.3029L314.397 66.9103L309.695 67.1044L286.736 63.8718L261.249 66.1187L244.352 63.233L236.187 59.9867L236.152 58.7937L243.646 62.0677L260.56 65.55L286.047 63.3029Z" fill="#FF9D64"/>
<ellipse cx="10.1496" cy="13.6334" rx="10.1496" ry="13.6334" transform="matrix(0.999148 -0.0412603 0.0295172 0.999564 372.327 16.8969)" fill="#666565"/>
<rect width="3.22151" height="16.3095" transform="matrix(0.57297 -0.826415 0.620323 0.777137 376.892 24.7497)" fill="#474747"/>
<rect width="3.22151" height="16.3095" transform="matrix(0.620323 0.777137 -0.57297 0.826415 386.547 21.7649)" fill="#474747"/>
<ellipse cx="10.1496" cy="13.6334" rx="10.1496" ry="13.6334" transform="matrix(0.999148 -0.0412603 0.0295172 0.999564 11.9368 35.8158)" fill="#666565"/>
<rect width="3.22151" height="16.3095" transform="matrix(0.57297 -0.826415 0.620323 0.777137 16.502 43.6687)" fill="#474747"/>
<rect width="3.22151" height="16.3095" transform="matrix(0.620323 0.777137 -0.57297 0.826415 26.1566 40.6838)" fill="#474747"/>
</g>
<g clip-path="url(#clip3_143_2)">
<path d="M392.186 666.237L4.27209 658.229L3.33834 721.49L391.252 729.497L392.186 666.237Z" fill="url(#paint3_radial_143_2)"/>
<path d="M279.067 722.405L306.894 727.755L321.507 728.057L309.622 723.036L278.438 720.004L255.827 721.329L245.235 718.722L230.01 714.826L237.264 718.557L253.808 723.078L279.067 722.405Z" fill="#82411D"/>
<path d="M69.2439 667.928L4.11357 668.972L3.9462 680.311L45.1288 681.161L69.1118 676.88L114.28 677.813L146.057 685.632L188.01 679.335L209.974 676.803L188.107 672.77L146.207 675.487L69.2439 667.928Z" fill="#82411D"/>
<path d="M45.7929 681.175L4.61034 680.325L4.5751 682.712L45.7577 683.562L67.0749 679.823L116.228 680.838L146.004 689.213L208.601 679.759L208.645 676.775L146.057 685.632L116.272 677.854L67.119 676.839L45.7929 681.175Z" fill="#FF9D64"/>
<path d="M42.1018 706.171L3.53213 708.36L3.37356 719.102L39.348 712.681L105.054 717.619L121.049 714.368L140.923 718.36L192.839 712.268L140.976 714.779L121.146 707.803L107.1 714.08L42.1018 706.171Z" fill="#82411D"/>
<path d="M38.0195 712.654L3.38235 718.506L3.34712 720.893L38.0019 713.847L104.373 718.799L121.031 715.561L139.568 720.123L191.493 713.434L191.511 712.24L141.587 718.374L121.049 714.368L104.39 717.606L38.0195 712.654Z" fill="#FF9D64"/>
<path d="M300.186 687.023L391.754 695.479L391.56 708.609L300.046 696.571L241.96 692.388L222.268 699.145L203.067 694.57L185.071 698.377L169.085 701.032L185.133 694.199L203.146 689.198L226.359 692.065L240.379 687.579L300.186 687.023Z" fill="#82411D"/>
<path d="M300.71 696.585L391.56 708.609L391.543 709.803L302.685 697.82L241.619 693.574L222.251 700.338L203.05 695.763L170.396 702.253L169.75 701.046L203.067 694.57L222.268 699.145L241.637 692.381L300.71 696.585Z" fill="#FF9D64"/>
<path d="M391.974 680.56L392.08 673.398L383.489 670.236L363.544 671.018L353.616 668.425L309.715 671.698L293.747 673.159L272.491 672.721L293.694 676.74L309.609 678.86L355.468 678.015L391.974 680.56Z" fill="#82411D"/>
<path d="M355.468 678.015L391.974 680.56L391.966 681.156L355.459 678.612L332.202 678.729L310.929 679.484L295.005 677.961L272.474 673.914L272.491 672.721L295.022 676.768L309.609 678.86L330.882 678.105L355.468 678.015Z" fill="#FF9D64"/>
<path d="M279.067 722.405L306.894 727.755L302.244 727.659L279.722 723.016L254.464 723.688L237.91 719.765L229.993 716.019L230.01 714.826L237.264 718.557L253.808 723.078L279.067 722.405Z" fill="#FF9D64"/>
<ellipse cx="9.64042" cy="13.6351" rx="9.64042" ry="13.6351" transform="matrix(0.999787 0.0206371 -0.0147589 0.999891 368.136 683.444)" fill="#666565"/>
<rect width="3.1651" height="16.0239" transform="matrix(0.589235 -0.804524 0.565133 0.828352 372.131 691.564)" fill="#474747"/>
<rect width="3.1651" height="16.0239" transform="matrix(0.565133 0.828352 -0.589235 0.804524 381.418 689.171)" fill="#474747"/>
<ellipse cx="9.64042" cy="13.6351" rx="9.64042" ry="13.6351" transform="matrix(0.999787 0.0206371 -0.0147589 0.999891 7.86145 677.942)" fill="#666565"/>
<rect width="3.1651" height="16.0239" transform="matrix(0.589235 -0.804524 0.565133 0.828352 11.8567 686.063)" fill="#474747"/>
<rect width="3.1651" height="16.0239" transform="matrix(0.565133 0.828352 -0.589235 0.804524 21.1436 683.669)" fill="#474747"/>
</g>
<defs>
<radialGradient id="paint0_radial_143_2" cx="0" cy="0" r="1" gradientUnits="userSpaceOnUse" gradientTransform="translate(41.5183 384.34) rotate(-92.5376) scale(334.36 147.443)">
<stop stop-color="#DF783D"/>
<stop offset="1" stop-color="#A75120"/>
</radialGradient>
<radialGradient id="paint1_radial_143_2" cx="0" cy="0" r="1" gradientUnits="userSpaceOnUse" gradientTransform="translate(368.151 384.461) rotate(-89.1543) scale(345.676 147.392)">
<stop stop-color="#DF783D"/>
<stop offset="1" stop-color="#A75120"/>
</radialGradient>
<radialGradient id="paint2_radial_143_2" cx="0" cy="0" r="1" gradientUnits="userSpaceOnUse" gradientTransform="translate(202.643 39.871) rotate(-2.36471) scale(196.286 174.249)">
<stop stop-color="#DF783D"/>
<stop offset="1" stop-color="#A75120"/>
</radialGradient>
<radialGradient id="paint3_radial_143_2" cx="0" cy="0" r="1" gradientUnits="userSpaceOnUse" gradientTransform="translate(197.762 693.863) rotate(1.1825) scale(193.998 174.28)">
<stop stop-color="#DF783D"/>
<stop offset="1" stop-color="#A75120"/>
</radialGradient>
<clipPath id="clip0_143_2">
<rect width="668.72" height="53.5321" fill="white" transform="matrix(-0.0442742 -0.999019 0.998085 -0.061856 29.6071 720.028)"/>
</clipPath>
<clipPath id="clip1_143_2">
<rect width="691.351" height="53.5062" fill="white" transform="matrix(0.0147589 -0.999891 0.999787 0.0206371 336.302 729.547)"/>
</clipPath>
<clipPath id="clip2_143_2">
<rect width="392.572" height="63.2588" fill="white" transform="matrix(0.999148 -0.0412603 0.0295172 0.999564 5.58997 16.3542)"/>
</clipPath>
<clipPath id="clip3_143_2">
<rect width="387.996" height="63.267" fill="white" transform="matrix(0.999787 0.0206371 -0.0147589 0.999891 4.27209 658.229)"/>
</clipPath>
</defs>
</svg>
