<svg width="292" height="58" viewBox="0 0 292 58" fill="none" xmlns="http://www.w3.org/2000/svg">
<rect width="292" height="58" fill="url(#paint0_radial_31_8)"/>
<path d="M207.5 53.6226L228.5 58H239.5L230.5 53.6226L207 51.4339L190 53.0755L182 50.8868L170.5 47.6038L176 50.8868L188.5 54.717L207.5 53.6226Z" fill="#82411D"/>
<path d="M49 7.66037L0 9.84905V20.2453H31L49 15.8679H83L107 22.434L138.5 15.8679L155 13.1321L138.5 9.84905L107 13.1321L49 7.66037Z" fill="#82411D"/>
<path d="M31.5 20.2453H0.5V22.434H31.5L47.5 18.6038H84.5L107 25.717L154 15.8679V13.1321L107 22.434L84.5 15.8679H47.5L31.5 20.2453Z" fill="#FF9D64"/>
<path d="M29 43.2264L0 45.9623V55.8113L27 49.2453L76.5 52.5283L88.5 49.2453L103.5 52.5283L142.5 45.9623L103.5 49.2453L88.5 43.2264L78 49.2453L29 43.2264Z" fill="#82411D"/>
<path d="M26 49.2453L0 55.2642V57.4528L26 50.3396L76 53.6227L88.5 50.3396L102.5 54.1698L141.5 47.0566V45.9623L104 52.5283L88.5 49.2453L76 52.5283L26 49.2453Z" fill="#FF9D64"/>
<path d="M223 20.7924L292 26.8113V38.8491L223 29.5472L179.243 26.8113L164.5 33.3774L150 29.5472L136.5 33.3774L124.5 36.1132L136.5 29.5472L150 24.6226L167.5 26.8113L178 22.434L223 20.7924Z" fill="#82411D"/>
<path d="M223.5 29.5472L292 38.849V39.9434L225 30.6415L179 27.9056L164.5 34.4717L150 30.6415L125.5 37.2075L125 36.1132L150 29.5472L164.5 33.3773L179 26.8113L223.5 29.5472Z" fill="#FF9D64"/>
<path d="M292 13.1321V6.56603L285.5 3.83018L270.5 4.92452L263 2.73584L230 6.56603L218 8.20754H202L218 11.4906L230 13.1321L264.5 11.4906L292 13.1321Z" fill="#82411D"/>
<path d="M264.5 11.4906L292 13.1321V13.6792L264.5 12.0377L247 12.5849L231 13.6792L219 12.5849L202 9.30189V8.20755L219 11.4906L230 13.1321L246 12.0377L264.5 11.4906Z" fill="#FF9D64"/>
<path d="M207.5 53.6226L228.5 58H225L208 54.1698L189 55.2641L176.5 51.9811L170.5 48.6981V47.6038L176 50.8868L188.5 54.717L207.5 53.6226Z" fill="#FF9D64"/>
<defs>
<radialGradient id="paint0_radial_31_8" cx="0" cy="0" r="1" gradientUnits="userSpaceOnUse" gradientTransform="translate(146 29) scale(146 159.774)">
<stop stop-color="#DF783D"/>
<stop offset="1" stop-color="#A75120"/>
</radialGradient>
</defs>
</svg>
