<svg width="35" height="14" viewBox="0 0 35 14" fill="none" xmlns="http://www.w3.org/2000/svg">
<g clip-path="url(#clip0_8_2)">
<mask id="path-1-inside-1_8_2" fill="white">
<path d="M2.78801 10.468C2.61201 10.468 2.44001 10.456 2.27201 10.432C1.76801 10.368 1.39601 10.22 1.15601 9.988C0.924014 9.756 0.808014 9.504 0.808014 9.232C0.808014 8.936 0.940014 8.668 1.20401 8.428C1.47601 8.188 1.85601 8.068 2.34401 8.068C2.49601 8.068 2.65601 8.084 2.82401 8.116C3.00001 8.14 3.18401 8.184 3.37601 8.248C3.47201 8.28 3.52001 8.324 3.52001 8.38C3.52001 8.412 3.49601 8.428 3.44801 8.428C3.40001 8.428 3.36001 8.42 3.32801 8.404C3.20001 8.356 3.07601 8.324 2.95601 8.308C2.84401 8.284 2.73601 8.272 2.63201 8.272C2.28801 8.272 2.02401 8.372 1.84001 8.572C1.66401 8.764 1.57601 8.976 1.57601 9.208C1.57601 9.432 1.66801 9.636 1.85201 9.82C2.03601 10.004 2.32801 10.096 2.72801 10.096C3.23201 10.096 3.69601 9.98 4.12001 9.748C4.55201 9.516 4.96001 9.212 5.34401 8.836C5.75201 8.436 6.12401 7.956 6.46001 7.396C6.79601 6.828 7.12801 6.224 7.45601 5.584C7.79201 4.936 8.15601 4.284 8.54801 3.628C8.94001 2.972 9.39201 2.356 9.90401 1.78C10.008 1.668 10.112 1.552 10.216 1.432C10.328 1.304 10.436 1.196 10.54 1.108C10.268 1.068 9.98801 1.04 9.70001 1.024C9.41201 1 9.12801 0.988001 8.84801 0.988001C8.43201 0.988001 8.03601 1.008 7.66001 1.048C7.29201 1.08 6.92401 1.128 6.55601 1.192C6.18001 1.264 5.76001 1.376 5.29601 1.528C4.83201 1.68 4.38001 1.88 3.94001 2.128C3.50801 2.368 3.13601 2.66 2.82401 3.004C2.52001 3.348 2.33201 3.744 2.26001 4.192C2.25201 4.232 2.24401 4.276 2.23601 4.324C2.23601 4.364 2.23601 4.404 2.23601 4.444C2.23601 4.812 2.36001 5.116 2.60801 5.356C2.86401 5.596 3.16001 5.716 3.49601 5.716C3.74401 5.716 3.98401 5.652 4.21601 5.524C4.44801 5.388 4.65601 5.212 4.84001 4.996C5.02401 4.772 5.16001 4.528 5.24801 4.264C5.25601 4.184 5.28801 4.144 5.34401 4.144C5.39201 4.144 5.41601 4.188 5.41601 4.276C5.40801 4.628 5.30401 4.932 5.10401 5.188C4.91201 5.444 4.66801 5.64 4.37201 5.776C4.07601 5.904 3.77601 5.968 3.47201 5.968C3.16001 5.968 2.86401 5.904 2.58401 5.776C2.30401 5.64 2.07601 5.444 1.90001 5.188C1.72401 4.924 1.63601 4.6 1.63601 4.216C1.63601 3.768 1.74401 3.372 1.96001 3.028C2.18401 2.684 2.48001 2.384 2.84801 2.128C3.21601 1.864 3.61601 1.644 4.04801 1.468C4.48001 1.284 4.91201 1.14 5.34401 1.036C5.77601 0.924002 6.16801 0.840002 6.52001 0.784002C6.88001 0.728002 7.25201 0.684002 7.63601 0.652001C8.02801 0.620001 8.42401 0.604001 8.82401 0.604001C9.16801 0.604001 9.51201 0.620001 9.85601 0.652001C10.2 0.684002 10.536 0.732002 10.864 0.796002C11 0.692002 11.14 0.600002 11.284 0.520002C11.428 0.440002 11.588 0.368002 11.764 0.304002C11.876 0.256002 11.96 0.232002 12.016 0.232002C12.064 0.232002 12.088 0.248002 12.088 0.280001C12.088 0.336001 12.024 0.404002 11.896 0.484001C11.832 0.516002 11.752 0.572002 11.656 0.652001C11.56 0.732001 11.456 0.824001 11.344 0.928001C11.864 1.056 12.332 1.248 12.748 1.504C13.204 1.776 13.528 2.064 13.72 2.368C13.92 2.672 14.02 2.984 14.02 3.304C14.02 3.672 13.908 4.04 13.684 4.408C13.46 4.768 13.168 5.104 12.808 5.416C12.448 5.728 12.052 6 11.62 6.232C11.188 6.456 10.76 6.62 10.336 6.724C9.92801 6.828 9.51601 6.904 9.10001 6.952C8.68401 7 8.31201 7.024 7.98401 7.024C7.92801 7.024 7.86801 7.024 7.80401 7.024C7.74801 7.024 7.69201 7.02 7.63601 7.012C7.36401 7.396 7.08401 7.772 6.79601 8.14C6.50801 8.5 6.18401 8.852 5.82401 9.196C5.38401 9.612 4.90401 9.928 4.38401 10.144C3.86401 10.36 3.33201 10.468 2.78801 10.468ZM7.80401 6.748C8.10801 6.756 8.44801 6.732 8.82401 6.676C9.20001 6.62 9.57601 6.536 9.95201 6.424C10.576 6.232 11.136 5.956 11.632 5.596C12.136 5.236 12.532 4.836 12.82 4.396C13.116 3.956 13.264 3.524 13.264 3.1C13.264 2.844 13.2 2.6 13.072 2.368C12.952 2.136 12.752 1.928 12.472 1.744C12.288 1.624 12.08 1.52 11.848 1.432C11.616 1.344 11.372 1.272 11.116 1.216C10.708 1.792 10.324 2.392 9.96401 3.016C9.61201 3.64 9.26001 4.268 8.90801 4.9C8.56401 5.532 8.19601 6.148 7.80401 6.748ZM14.548 7.06C14.572 6.996 14.584 6.944 14.584 6.904C14.584 6.76 14.492 6.656 14.308 6.592C14.132 6.52 13.9 6.48 13.612 6.472C13.444 6.84 13.26 7.228 13.06 7.636C12.868 8.036 12.66 8.432 12.436 8.824C12.212 9.208 11.972 9.56 11.716 9.88C11.46 10.192 11.18 10.44 10.876 10.624C10.58 10.816 10.256 10.912 9.90401 10.912C9.71201 10.912 9.50001 10.88 9.26801 10.816C9.18001 10.792 9.13601 10.752 9.13601 10.696C9.13601 10.616 9.17601 10.576 9.25601 10.576C9.32001 10.576 9.38001 10.58 9.43601 10.588C9.50001 10.596 9.58401 10.6 9.68801 10.6C10.128 10.6 10.532 10.472 10.9 10.216C11.276 9.96 11.616 9.624 11.92 9.208C12.224 8.784 12.496 8.324 12.736 7.828C12.976 7.324 13.18 6.82 13.348 6.316C13.524 5.812 13.664 5.356 13.768 4.948C13.824 4.7 13.936 4.576 14.104 4.576C14.216 4.576 14.312 4.628 14.392 4.732C14.48 4.828 14.524 4.968 14.524 5.152C14.524 5.184 14.52 5.22 14.512 5.26C14.512 5.3 14.508 5.34 14.5 5.38C14.468 5.548 14.376 5.708 14.224 5.86C14.072 6.004 13.944 6.112 13.84 6.184C13.92 6.192 14.004 6.2 14.092 6.208C14.188 6.208 14.284 6.208 14.38 6.208C14.764 6.208 15.14 6.184 15.508 6.136C15.524 6.184 15.532 6.22 15.532 6.244C15.532 6.348 15.5 6.48 15.436 6.64C15.38 6.8 15.32 6.944 15.256 7.072C15.224 7.144 15.16 7.276 15.064 7.468C14.968 7.652 14.864 7.864 14.752 8.104C14.64 8.336 14.544 8.568 14.464 8.8C14.392 9.024 14.356 9.216 14.356 9.376C14.356 9.584 14.436 9.688 14.596 9.688C14.748 9.688 14.96 9.512 15.232 9.16C15.504 8.8 15.776 8.308 16.048 7.684C16.144 7.684 16.192 7.72 16.192 7.792C16.104 8.008 15.992 8.244 15.856 8.5C15.728 8.756 15.584 9 15.424 9.232C15.264 9.456 15.092 9.644 14.908 9.796C14.724 9.94 14.532 10.012 14.332 10.012C14.18 10.012 14.028 9.952 13.876 9.832C13.724 9.704 13.648 9.5 13.648 9.22C13.648 9.004 13.7 8.756 13.804 8.476C13.9 8.204 14.028 7.94 14.188 7.684C14.356 7.428 14.476 7.22 14.548 7.06ZM16.7718 10C16.4438 10 16.1998 9.884 16.0398 9.652C15.8878 9.412 15.8118 9.124 15.8118 8.788C15.8118 8.476 15.8718 8.152 15.9918 7.816C16.1198 7.448 16.2958 7.112 16.5198 6.808C16.7518 6.504 17.0038 6.26 17.2758 6.076C17.5558 5.884 17.8318 5.788 18.1038 5.788C18.4318 5.788 18.6718 5.9 18.8238 6.124C18.9838 6.348 19.0638 6.632 19.0638 6.976C19.0638 7.216 19.0238 7.468 18.9438 7.732C18.8638 7.996 18.7558 8.256 18.6198 8.512C18.7238 8.616 18.8718 8.668 19.0638 8.668C19.2878 8.668 19.4798 8.596 19.6398 8.452C19.7998 8.308 19.9558 8.052 20.1078 7.684C20.2038 7.684 20.2518 7.72 20.2518 7.792C20.0998 8.16 19.9238 8.432 19.7238 8.608C19.5318 8.776 19.2838 8.856 18.9798 8.848C18.7958 8.848 18.6438 8.796 18.5238 8.692C18.2998 9.06 18.0318 9.372 17.7198 9.628C17.4158 9.876 17.0998 10 16.7718 10ZM16.9398 9.736C17.1238 9.736 17.3078 9.66 17.4918 9.508C17.6758 9.348 17.8438 9.168 17.9958 8.968C18.1478 8.768 18.2558 8.596 18.3198 8.452C18.1918 8.22 18.1158 8.048 18.0918 7.936C18.0758 7.816 18.0678 7.728 18.0678 7.672C18.0678 7.52 18.1078 7.404 18.1878 7.324C18.2678 7.244 18.3478 7.204 18.4277 7.204C18.5398 7.204 18.6358 7.252 18.7158 7.348C18.7318 7.26 18.7438 7.18 18.7518 7.108C18.7598 7.028 18.7638 6.952 18.7638 6.88C18.7638 6.672 18.7238 6.504 18.6438 6.376C18.5718 6.24 18.4558 6.172 18.2958 6.172C18.1278 6.172 17.9518 6.244 17.7678 6.388C17.5838 6.532 17.4078 6.724 17.2398 6.964C17.0798 7.204 16.9398 7.472 16.8198 7.768C16.7158 8.016 16.6358 8.252 16.5798 8.476C16.5238 8.692 16.4958 8.892 16.4958 9.076C16.4958 9.276 16.5318 9.436 16.6038 9.556C16.6758 9.676 16.7878 9.736 16.9398 9.736ZM15.7744 13.828C15.3584 13.828 15.0664 13.744 14.8984 13.576C14.7224 13.416 14.6344 13.224 14.6344 13C14.6344 12.784 14.6944 12.568 14.8144 12.352C14.9264 12.12 15.0824 11.92 15.2824 11.752C15.4824 11.592 15.7024 11.456 15.9424 11.344C16.3504 11.152 16.8224 10.996 17.3584 10.876C17.8864 10.756 18.3944 10.624 18.8824 10.48C18.9464 10.368 19.0144 10.252 19.0864 10.132C19.1504 10.012 19.2104 9.896 19.2664 9.784C19.4264 9.464 19.5744 9.148 19.7104 8.836C19.8464 8.516 20.0144 8.172 20.2144 7.804C20.1424 7.804 20.1064 7.764 20.1064 7.684L20.6344 6.472C20.6424 6.456 20.6504 6.436 20.6584 6.412C20.6664 6.38 20.6704 6.348 20.6704 6.316C20.6704 6.228 20.6504 6.156 20.6104 6.1C20.5704 6.036 20.5424 5.992 20.5264 5.968L21.1864 5.944H21.2464C21.4224 5.944 21.5104 6 21.5104 6.112C21.5104 6.168 21.4864 6.256 21.4384 6.376L20.4784 8.632C20.3664 8.896 20.2464 9.16 20.1184 9.424C19.9904 9.688 19.8584 9.956 19.7224 10.228C20.2824 10.012 20.7264 9.748 21.0544 9.436C21.3904 9.116 21.6464 8.8 21.8224 8.488C22.0064 8.168 22.1464 7.9 22.2424 7.684C22.3384 7.684 22.3864 7.72 22.3864 7.792C22.3064 7.968 22.2024 8.18 22.0744 8.428C21.9464 8.668 21.7784 8.924 21.5704 9.196C21.3624 9.46 21.0944 9.716 20.7664 9.964C20.4384 10.212 20.0264 10.428 19.5304 10.612C19.3384 10.956 19.1184 11.312 18.8704 11.68C18.6224 12.056 18.3424 12.404 18.0304 12.724C17.7184 13.052 17.3784 13.316 17.0104 13.516C16.6344 13.724 16.2224 13.828 15.7744 13.828ZM15.4864 13.588C15.7504 13.588 16.0264 13.508 16.3144 13.348C16.5944 13.188 16.8664 12.984 17.1304 12.736C17.3944 12.496 17.6384 12.248 17.8624 11.992C18.0784 11.736 18.2544 11.512 18.3904 11.32C18.4384 11.256 18.4824 11.184 18.5224 11.104C18.5624 11.024 18.6024 10.944 18.6424 10.864C18.2584 10.968 17.8344 11.08 17.3704 11.2C16.9064 11.328 16.4984 11.468 16.1464 11.62C15.7624 11.78 15.4624 12.004 15.2464 12.292C15.0304 12.588 14.9224 12.852 14.9224 13.084C14.9224 13.236 14.9704 13.356 15.0664 13.444C15.1544 13.54 15.2944 13.588 15.4864 13.588ZM21.5344 5.2C21.4304 5.2 21.3384 5.16 21.2584 5.08C21.1864 5 21.1504 4.904 21.1504 4.792C21.1504 4.656 21.2064 4.536 21.3184 4.432C21.4304 4.32 21.5544 4.264 21.6904 4.264C21.8024 4.264 21.8984 4.3 21.9784 4.372C22.0584 4.444 22.0984 4.536 22.0984 4.648C22.0984 4.792 22.0424 4.92 21.9304 5.032C21.8184 5.144 21.6864 5.2 21.5344 5.2ZM23.1033 10.048C22.8073 10.048 22.5393 9.952 22.2993 9.76C22.0673 9.568 21.9513 9.276 21.9513 8.884C21.9513 8.556 22.0233 8.208 22.1673 7.84C22.3193 7.472 22.5153 7.128 22.7553 6.808C23.0033 6.48 23.2753 6.216 23.5713 6.016C23.8753 5.808 24.1793 5.704 24.4833 5.704C24.6353 5.704 24.7833 5.748 24.9273 5.836C25.0713 5.924 25.1433 6.076 25.1433 6.292C25.1433 6.492 25.0673 6.712 24.9153 6.952C24.7633 7.192 24.5473 7.416 24.2673 7.624C24.1473 7.712 23.9953 7.796 23.8113 7.876C23.6273 7.956 23.4433 8.024 23.2593 8.08C23.0753 8.128 22.9233 8.152 22.8033 8.152C22.7633 8.248 22.7233 8.376 22.6833 8.536C22.6513 8.696 22.6353 8.86 22.6353 9.028C22.6353 9.228 22.6753 9.408 22.7553 9.568C22.8353 9.728 22.9833 9.808 23.1993 9.808C23.4633 9.808 23.7073 9.732 23.9313 9.58C24.1633 9.428 24.3673 9.236 24.5433 9.004C24.7273 8.772 24.8833 8.536 25.0113 8.296C25.1393 8.056 25.2393 7.852 25.3113 7.684C25.4073 7.684 25.4553 7.72 25.4553 7.792C25.3513 8.016 25.2313 8.26 25.0953 8.524C24.9673 8.788 24.8113 9.036 24.6273 9.268C24.4513 9.492 24.2353 9.68 23.9793 9.832C23.7313 9.976 23.4393 10.048 23.1033 10.048ZM22.8873 7.936C22.9993 7.936 23.1873 7.896 23.4513 7.816C23.7153 7.728 23.9553 7.592 24.1713 7.408C24.3793 7.224 24.5393 7.024 24.6513 6.808C24.7633 6.584 24.8193 6.396 24.8193 6.244C24.8193 6.068 24.7553 5.98 24.6273 5.98C24.5313 5.98 24.3993 6.044 24.2313 6.172C24.0633 6.3 23.8553 6.516 23.6073 6.82C23.4553 7.012 23.3113 7.22 23.1753 7.444C23.0393 7.668 22.9433 7.832 22.8873 7.936ZM26.3416 10.048C25.9016 10.048 25.5736 9.932 25.3576 9.7C25.1496 9.468 25.0456 9.156 25.0456 8.764C25.0456 8.58 25.0816 8.368 25.1536 8.128C25.2256 7.888 25.3216 7.644 25.4416 7.396C25.5616 7.148 25.6936 6.928 25.8376 6.736C26.0696 6.424 26.3256 6.184 26.6056 6.016C26.8856 5.84 27.1696 5.752 27.4576 5.752C27.7616 5.752 27.9776 5.82 28.1056 5.956C28.2416 6.084 28.3096 6.236 28.3096 6.412C28.3096 6.58 28.2696 6.732 28.1896 6.868C28.1096 6.996 28.0176 7.1 27.9136 7.18C27.8176 7.26 27.7336 7.3 27.6616 7.3C27.5976 7.3 27.5416 7.276 27.4936 7.228C27.5576 7.148 27.6256 7.052 27.6976 6.94C27.7696 6.828 27.8216 6.72 27.8536 6.616C27.8856 6.52 27.9016 6.424 27.9016 6.328C27.9016 6.12 27.8056 6.016 27.6136 6.016C27.3816 6.016 27.1536 6.112 26.9296 6.304C26.7136 6.496 26.5136 6.744 26.3296 7.048C26.1536 7.344 26.0096 7.66 25.8976 7.996C25.7936 8.324 25.7416 8.628 25.7416 8.908C25.7416 9.164 25.7936 9.376 25.8976 9.544C26.0096 9.712 26.1896 9.796 26.4376 9.796C26.7656 9.796 27.0536 9.692 27.3016 9.484C27.5496 9.268 27.7696 9 27.9616 8.68C28.1536 8.352 28.3216 8.02 28.4656 7.684C28.4976 7.684 28.5296 7.692 28.5616 7.708C28.5936 7.716 28.6096 7.744 28.6096 7.792C28.4496 8.192 28.2616 8.564 28.0456 8.908C27.8296 9.252 27.5816 9.528 27.3016 9.736C27.0296 9.944 26.7096 10.048 26.3416 10.048ZM30.9459 3.664C30.8419 3.816 30.7259 4.008 30.5979 4.24C30.4699 4.472 30.3499 4.696 30.2379 4.912C30.1339 5.128 30.0539 5.292 29.9979 5.404H31.1019C31.1019 5.436 31.0859 5.488 31.0539 5.56C31.0299 5.632 30.9779 5.684 30.8979 5.716H29.8539C29.7579 5.932 29.6459 6.192 29.5179 6.496C29.3979 6.8 29.2779 7.116 29.1579 7.444C29.0459 7.772 28.9499 8.08 28.8699 8.368C28.7979 8.648 28.7619 8.876 28.7619 9.052C28.7619 9.292 28.7939 9.472 28.8579 9.592C28.9219 9.704 29.0379 9.76 29.2059 9.76C29.4219 9.76 29.6299 9.656 29.8299 9.448C30.0299 9.232 30.2179 8.964 30.3939 8.644C30.5779 8.324 30.7379 8.004 30.8739 7.684C30.9699 7.684 31.0179 7.72 31.0179 7.792C30.9299 8.008 30.8219 8.244 30.6939 8.5C30.5659 8.756 30.4179 9.004 30.2499 9.244C30.0899 9.476 29.9059 9.668 29.6979 9.82C29.4979 9.964 29.2739 10.036 29.0259 10.036C28.6899 10.036 28.4619 9.944 28.3419 9.76C28.2219 9.568 28.1619 9.324 28.1619 9.028C28.1619 8.812 28.2019 8.552 28.2819 8.248C28.3619 7.936 28.4579 7.616 28.5699 7.288C28.6899 6.96 28.8059 6.656 28.9179 6.376C29.0299 6.088 29.1179 5.868 29.1819 5.716H28.4139C28.4139 5.652 28.4419 5.584 28.4979 5.512C28.5539 5.44 28.6139 5.404 28.6779 5.404H29.3139C29.3779 5.276 29.4499 5.116 29.5299 4.924C29.6179 4.732 29.7339 4.52 29.8779 4.288C29.9979 4.096 30.1499 3.944 30.3339 3.832C30.5259 3.72 30.7299 3.664 30.9459 3.664ZM31.128 10.048C30.8 10.048 30.532 9.948 30.324 9.748C30.124 9.54 30.024 9.324 30.024 9.1C30.024 8.916 30.072 8.748 30.168 8.596C30.256 8.436 30.376 8.356 30.528 8.356L30.54 8.332C30.716 8.012 30.884 7.688 31.044 7.36C31.212 7.024 31.396 6.668 31.596 6.292C31.764 5.98 31.944 5.724 32.136 5.524C32.336 5.324 32.568 5.224 32.832 5.224C32.896 5.224 32.984 5.24 33.096 5.272C33.208 5.296 33.264 5.352 33.264 5.44C33.264 5.504 33.228 5.536 33.156 5.536C33.1 5.536 33.036 5.52 32.964 5.488C32.9 5.456 32.848 5.44 32.808 5.44C32.656 5.44 32.528 5.528 32.424 5.704C32.32 5.88 32.268 6.068 32.268 6.268C32.268 6.484 32.304 6.68 32.376 6.856C32.448 7.024 32.532 7.188 32.628 7.348C32.724 7.508 32.808 7.672 32.88 7.84C32.952 8 32.988 8.176 32.988 8.368C32.988 8.752 32.912 9.064 32.76 9.304C32.616 9.536 32.424 9.712 32.184 9.832H32.196C32.62 9.832 32.968 9.636 33.24 9.244C33.52 8.844 33.796 8.324 34.068 7.684C34.164 7.684 34.212 7.72 34.212 7.792C34.06 8.152 33.892 8.504 33.708 8.848C33.524 9.192 33.308 9.476 33.06 9.7C32.812 9.924 32.508 10.036 32.148 10.036C31.996 10.036 31.856 10.02 31.728 9.988C31.544 10.028 31.344 10.048 31.128 10.048ZM30.948 8.776C30.948 8.968 30.992 9.152 31.08 9.328C31.168 9.504 31.328 9.636 31.56 9.724C31.768 9.604 31.928 9.42 32.04 9.172C32.16 8.916 32.22 8.652 32.22 8.38C32.22 8.156 32.196 7.928 32.148 7.696C32.1 7.464 32.048 7.236 31.992 7.012C31.944 6.788 31.92 6.588 31.92 6.412C31.92 6.356 31.92 6.308 31.92 6.268C31.928 6.22 31.936 6.176 31.944 6.136C31.8 6.352 31.652 6.604 31.5 6.892C31.356 7.18 31.216 7.456 31.08 7.72C30.944 7.984 30.82 8.2 30.708 8.368C30.868 8.392 30.948 8.528 30.948 8.776ZM30.552 9.376C30.552 9.504 30.596 9.616 30.684 9.712C30.772 9.808 30.904 9.856 31.08 9.856C31.16 9.856 31.236 9.848 31.308 9.832C31.14 9.728 31.004 9.596 30.9 9.436C30.804 9.276 30.756 9.092 30.756 8.884C30.684 8.964 30.632 9.048 30.6 9.136C30.568 9.216 30.552 9.296 30.552 9.376Z"/>
</mask>
<path d="M2.78801 10.468C2.61201 10.468 2.44001 10.456 2.27201 10.432C1.76801 10.368 1.39601 10.22 1.15601 9.988C0.924014 9.756 0.808014 9.504 0.808014 9.232C0.808014 8.936 0.940014 8.668 1.20401 8.428C1.47601 8.188 1.85601 8.068 2.34401 8.068C2.49601 8.068 2.65601 8.084 2.82401 8.116C3.00001 8.14 3.18401 8.184 3.37601 8.248C3.47201 8.28 3.52001 8.324 3.52001 8.38C3.52001 8.412 3.49601 8.428 3.44801 8.428C3.40001 8.428 3.36001 8.42 3.32801 8.404C3.20001 8.356 3.07601 8.324 2.95601 8.308C2.84401 8.284 2.73601 8.272 2.63201 8.272C2.28801 8.272 2.02401 8.372 1.84001 8.572C1.66401 8.764 1.57601 8.976 1.57601 9.208C1.57601 9.432 1.66801 9.636 1.85201 9.82C2.03601 10.004 2.32801 10.096 2.72801 10.096C3.23201 10.096 3.69601 9.98 4.12001 9.748C4.55201 9.516 4.96001 9.212 5.34401 8.836C5.75201 8.436 6.12401 7.956 6.46001 7.396C6.79601 6.828 7.12801 6.224 7.45601 5.584C7.79201 4.936 8.15601 4.284 8.54801 3.628C8.94001 2.972 9.39201 2.356 9.90401 1.78C10.008 1.668 10.112 1.552 10.216 1.432C10.328 1.304 10.436 1.196 10.54 1.108C10.268 1.068 9.98801 1.04 9.70001 1.024C9.41201 1 9.12801 0.988001 8.84801 0.988001C8.43201 0.988001 8.03601 1.008 7.66001 1.048C7.29201 1.08 6.92401 1.128 6.55601 1.192C6.18001 1.264 5.76001 1.376 5.29601 1.528C4.83201 1.68 4.38001 1.88 3.94001 2.128C3.50801 2.368 3.13601 2.66 2.82401 3.004C2.52001 3.348 2.33201 3.744 2.26001 4.192C2.25201 4.232 2.24401 4.276 2.23601 4.324C2.23601 4.364 2.23601 4.404 2.23601 4.444C2.23601 4.812 2.36001 5.116 2.60801 5.356C2.86401 5.596 3.16001 5.716 3.49601 5.716C3.74401 5.716 3.98401 5.652 4.21601 5.524C4.44801 5.388 4.65601 5.212 4.84001 4.996C5.02401 4.772 5.16001 4.528 5.24801 4.264C5.25601 4.184 5.28801 4.144 5.34401 4.144C5.39201 4.144 5.41601 4.188 5.41601 4.276C5.40801 4.628 5.30401 4.932 5.10401 5.188C4.91201 5.444 4.66801 5.64 4.37201 5.776C4.07601 5.904 3.77601 5.968 3.47201 5.968C3.16001 5.968 2.86401 5.904 2.58401 5.776C2.30401 5.64 2.07601 5.444 1.90001 5.188C1.72401 4.924 1.63601 4.6 1.63601 4.216C1.63601 3.768 1.74401 3.372 1.96001 3.028C2.18401 2.684 2.48001 2.384 2.84801 2.128C3.21601 1.864 3.61601 1.644 4.04801 1.468C4.48001 1.284 4.91201 1.14 5.34401 1.036C5.77601 0.924002 6.16801 0.840002 6.52001 0.784002C6.88001 0.728002 7.25201 0.684002 7.63601 0.652001C8.02801 0.620001 8.42401 0.604001 8.82401 0.604001C9.16801 0.604001 9.51201 0.620001 9.85601 0.652001C10.2 0.684002 10.536 0.732002 10.864 0.796002C11 0.692002 11.14 0.600002 11.284 0.520002C11.428 0.440002 11.588 0.368002 11.764 0.304002C11.876 0.256002 11.96 0.232002 12.016 0.232002C12.064 0.232002 12.088 0.248002 12.088 0.280001C12.088 0.336001 12.024 0.404002 11.896 0.484001C11.832 0.516002 11.752 0.572002 11.656 0.652001C11.56 0.732001 11.456 0.824001 11.344 0.928001C11.864 1.056 12.332 1.248 12.748 1.504C13.204 1.776 13.528 2.064 13.72 2.368C13.92 2.672 14.02 2.984 14.02 3.304C14.02 3.672 13.908 4.04 13.684 4.408C13.46 4.768 13.168 5.104 12.808 5.416C12.448 5.728 12.052 6 11.62 6.232C11.188 6.456 10.76 6.62 10.336 6.724C9.92801 6.828 9.51601 6.904 9.10001 6.952C8.68401 7 8.31201 7.024 7.98401 7.024C7.92801 7.024 7.86801 7.024 7.80401 7.024C7.74801 7.024 7.69201 7.02 7.63601 7.012C7.36401 7.396 7.08401 7.772 6.79601 8.14C6.50801 8.5 6.18401 8.852 5.82401 9.196C5.38401 9.612 4.90401 9.928 4.38401 10.144C3.86401 10.36 3.33201 10.468 2.78801 10.468ZM7.80401 6.748C8.10801 6.756 8.44801 6.732 8.82401 6.676C9.20001 6.62 9.57601 6.536 9.95201 6.424C10.576 6.232 11.136 5.956 11.632 5.596C12.136 5.236 12.532 4.836 12.82 4.396C13.116 3.956 13.264 3.524 13.264 3.1C13.264 2.844 13.2 2.6 13.072 2.368C12.952 2.136 12.752 1.928 12.472 1.744C12.288 1.624 12.08 1.52 11.848 1.432C11.616 1.344 11.372 1.272 11.116 1.216C10.708 1.792 10.324 2.392 9.96401 3.016C9.61201 3.64 9.26001 4.268 8.90801 4.9C8.56401 5.532 8.19601 6.148 7.80401 6.748ZM14.548 7.06C14.572 6.996 14.584 6.944 14.584 6.904C14.584 6.76 14.492 6.656 14.308 6.592C14.132 6.52 13.9 6.48 13.612 6.472C13.444 6.84 13.26 7.228 13.06 7.636C12.868 8.036 12.66 8.432 12.436 8.824C12.212 9.208 11.972 9.56 11.716 9.88C11.46 10.192 11.18 10.44 10.876 10.624C10.58 10.816 10.256 10.912 9.90401 10.912C9.71201 10.912 9.50001 10.88 9.26801 10.816C9.18001 10.792 9.13601 10.752 9.13601 10.696C9.13601 10.616 9.17601 10.576 9.25601 10.576C9.32001 10.576 9.38001 10.58 9.43601 10.588C9.50001 10.596 9.58401 10.6 9.68801 10.6C10.128 10.6 10.532 10.472 10.9 10.216C11.276 9.96 11.616 9.624 11.92 9.208C12.224 8.784 12.496 8.324 12.736 7.828C12.976 7.324 13.18 6.82 13.348 6.316C13.524 5.812 13.664 5.356 13.768 4.948C13.824 4.7 13.936 4.576 14.104 4.576C14.216 4.576 14.312 4.628 14.392 4.732C14.48 4.828 14.524 4.968 14.524 5.152C14.524 5.184 14.52 5.22 14.512 5.26C14.512 5.3 14.508 5.34 14.5 5.38C14.468 5.548 14.376 5.708 14.224 5.86C14.072 6.004 13.944 6.112 13.84 6.184C13.92 6.192 14.004 6.2 14.092 6.208C14.188 6.208 14.284 6.208 14.38 6.208C14.764 6.208 15.14 6.184 15.508 6.136C15.524 6.184 15.532 6.22 15.532 6.244C15.532 6.348 15.5 6.48 15.436 6.64C15.38 6.8 15.32 6.944 15.256 7.072C15.224 7.144 15.16 7.276 15.064 7.468C14.968 7.652 14.864 7.864 14.752 8.104C14.64 8.336 14.544 8.568 14.464 8.8C14.392 9.024 14.356 9.216 14.356 9.376C14.356 9.584 14.436 9.688 14.596 9.688C14.748 9.688 14.96 9.512 15.232 9.16C15.504 8.8 15.776 8.308 16.048 7.684C16.144 7.684 16.192 7.72 16.192 7.792C16.104 8.008 15.992 8.244 15.856 8.5C15.728 8.756 15.584 9 15.424 9.232C15.264 9.456 15.092 9.644 14.908 9.796C14.724 9.94 14.532 10.012 14.332 10.012C14.18 10.012 14.028 9.952 13.876 9.832C13.724 9.704 13.648 9.5 13.648 9.22C13.648 9.004 13.7 8.756 13.804 8.476C13.9 8.204 14.028 7.94 14.188 7.684C14.356 7.428 14.476 7.22 14.548 7.06ZM16.7718 10C16.4438 10 16.1998 9.884 16.0398 9.652C15.8878 9.412 15.8118 9.124 15.8118 8.788C15.8118 8.476 15.8718 8.152 15.9918 7.816C16.1198 7.448 16.2958 7.112 16.5198 6.808C16.7518 6.504 17.0038 6.26 17.2758 6.076C17.5558 5.884 17.8318 5.788 18.1038 5.788C18.4318 5.788 18.6718 5.9 18.8238 6.124C18.9838 6.348 19.0638 6.632 19.0638 6.976C19.0638 7.216 19.0238 7.468 18.9438 7.732C18.8638 7.996 18.7558 8.256 18.6198 8.512C18.7238 8.616 18.8718 8.668 19.0638 8.668C19.2878 8.668 19.4798 8.596 19.6398 8.452C19.7998 8.308 19.9558 8.052 20.1078 7.684C20.2038 7.684 20.2518 7.72 20.2518 7.792C20.0998 8.16 19.9238 8.432 19.7238 8.608C19.5318 8.776 19.2838 8.856 18.9798 8.848C18.7958 8.848 18.6438 8.796 18.5238 8.692C18.2998 9.06 18.0318 9.372 17.7198 9.628C17.4158 9.876 17.0998 10 16.7718 10ZM16.9398 9.736C17.1238 9.736 17.3078 9.66 17.4918 9.508C17.6758 9.348 17.8438 9.168 17.9958 8.968C18.1478 8.768 18.2558 8.596 18.3198 8.452C18.1918 8.22 18.1158 8.048 18.0918 7.936C18.0758 7.816 18.0678 7.728 18.0678 7.672C18.0678 7.52 18.1078 7.404 18.1878 7.324C18.2678 7.244 18.3478 7.204 18.4277 7.204C18.5398 7.204 18.6358 7.252 18.7158 7.348C18.7318 7.26 18.7438 7.18 18.7518 7.108C18.7598 7.028 18.7638 6.952 18.7638 6.88C18.7638 6.672 18.7238 6.504 18.6438 6.376C18.5718 6.24 18.4558 6.172 18.2958 6.172C18.1278 6.172 17.9518 6.244 17.7678 6.388C17.5838 6.532 17.4078 6.724 17.2398 6.964C17.0798 7.204 16.9398 7.472 16.8198 7.768C16.7158 8.016 16.6358 8.252 16.5798 8.476C16.5238 8.692 16.4958 8.892 16.4958 9.076C16.4958 9.276 16.5318 9.436 16.6038 9.556C16.6758 9.676 16.7878 9.736 16.9398 9.736ZM15.7744 13.828C15.3584 13.828 15.0664 13.744 14.8984 13.576C14.7224 13.416 14.6344 13.224 14.6344 13C14.6344 12.784 14.6944 12.568 14.8144 12.352C14.9264 12.12 15.0824 11.92 15.2824 11.752C15.4824 11.592 15.7024 11.456 15.9424 11.344C16.3504 11.152 16.8224 10.996 17.3584 10.876C17.8864 10.756 18.3944 10.624 18.8824 10.48C18.9464 10.368 19.0144 10.252 19.0864 10.132C19.1504 10.012 19.2104 9.896 19.2664 9.784C19.4264 9.464 19.5744 9.148 19.7104 8.836C19.8464 8.516 20.0144 8.172 20.2144 7.804C20.1424 7.804 20.1064 7.764 20.1064 7.684L20.6344 6.472C20.6424 6.456 20.6504 6.436 20.6584 6.412C20.6664 6.38 20.6704 6.348 20.6704 6.316C20.6704 6.228 20.6504 6.156 20.6104 6.1C20.5704 6.036 20.5424 5.992 20.5264 5.968L21.1864 5.944H21.2464C21.4224 5.944 21.5104 6 21.5104 6.112C21.5104 6.168 21.4864 6.256 21.4384 6.376L20.4784 8.632C20.3664 8.896 20.2464 9.16 20.1184 9.424C19.9904 9.688 19.8584 9.956 19.7224 10.228C20.2824 10.012 20.7264 9.748 21.0544 9.436C21.3904 9.116 21.6464 8.8 21.8224 8.488C22.0064 8.168 22.1464 7.9 22.2424 7.684C22.3384 7.684 22.3864 7.72 22.3864 7.792C22.3064 7.968 22.2024 8.18 22.0744 8.428C21.9464 8.668 21.7784 8.924 21.5704 9.196C21.3624 9.46 21.0944 9.716 20.7664 9.964C20.4384 10.212 20.0264 10.428 19.5304 10.612C19.3384 10.956 19.1184 11.312 18.8704 11.68C18.6224 12.056 18.3424 12.404 18.0304 12.724C17.7184 13.052 17.3784 13.316 17.0104 13.516C16.6344 13.724 16.2224 13.828 15.7744 13.828ZM15.4864 13.588C15.7504 13.588 16.0264 13.508 16.3144 13.348C16.5944 13.188 16.8664 12.984 17.1304 12.736C17.3944 12.496 17.6384 12.248 17.8624 11.992C18.0784 11.736 18.2544 11.512 18.3904 11.32C18.4384 11.256 18.4824 11.184 18.5224 11.104C18.5624 11.024 18.6024 10.944 18.6424 10.864C18.2584 10.968 17.8344 11.08 17.3704 11.2C16.9064 11.328 16.4984 11.468 16.1464 11.62C15.7624 11.78 15.4624 12.004 15.2464 12.292C15.0304 12.588 14.9224 12.852 14.9224 13.084C14.9224 13.236 14.9704 13.356 15.0664 13.444C15.1544 13.54 15.2944 13.588 15.4864 13.588ZM21.5344 5.2C21.4304 5.2 21.3384 5.16 21.2584 5.08C21.1864 5 21.1504 4.904 21.1504 4.792C21.1504 4.656 21.2064 4.536 21.3184 4.432C21.4304 4.32 21.5544 4.264 21.6904 4.264C21.8024 4.264 21.8984 4.3 21.9784 4.372C22.0584 4.444 22.0984 4.536 22.0984 4.648C22.0984 4.792 22.0424 4.92 21.9304 5.032C21.8184 5.144 21.6864 5.2 21.5344 5.2ZM23.1033 10.048C22.8073 10.048 22.5393 9.952 22.2993 9.76C22.0673 9.568 21.9513 9.276 21.9513 8.884C21.9513 8.556 22.0233 8.208 22.1673 7.84C22.3193 7.472 22.5153 7.128 22.7553 6.808C23.0033 6.48 23.2753 6.216 23.5713 6.016C23.8753 5.808 24.1793 5.704 24.4833 5.704C24.6353 5.704 24.7833 5.748 24.9273 5.836C25.0713 5.924 25.1433 6.076 25.1433 6.292C25.1433 6.492 25.0673 6.712 24.9153 6.952C24.7633 7.192 24.5473 7.416 24.2673 7.624C24.1473 7.712 23.9953 7.796 23.8113 7.876C23.6273 7.956 23.4433 8.024 23.2593 8.08C23.0753 8.128 22.9233 8.152 22.8033 8.152C22.7633 8.248 22.7233 8.376 22.6833 8.536C22.6513 8.696 22.6353 8.86 22.6353 9.028C22.6353 9.228 22.6753 9.408 22.7553 9.568C22.8353 9.728 22.9833 9.808 23.1993 9.808C23.4633 9.808 23.7073 9.732 23.9313 9.58C24.1633 9.428 24.3673 9.236 24.5433 9.004C24.7273 8.772 24.8833 8.536 25.0113 8.296C25.1393 8.056 25.2393 7.852 25.3113 7.684C25.4073 7.684 25.4553 7.72 25.4553 7.792C25.3513 8.016 25.2313 8.26 25.0953 8.524C24.9673 8.788 24.8113 9.036 24.6273 9.268C24.4513 9.492 24.2353 9.68 23.9793 9.832C23.7313 9.976 23.4393 10.048 23.1033 10.048ZM22.8873 7.936C22.9993 7.936 23.1873 7.896 23.4513 7.816C23.7153 7.728 23.9553 7.592 24.1713 7.408C24.3793 7.224 24.5393 7.024 24.6513 6.808C24.7633 6.584 24.8193 6.396 24.8193 6.244C24.8193 6.068 24.7553 5.98 24.6273 5.98C24.5313 5.98 24.3993 6.044 24.2313 6.172C24.0633 6.3 23.8553 6.516 23.6073 6.82C23.4553 7.012 23.3113 7.22 23.1753 7.444C23.0393 7.668 22.9433 7.832 22.8873 7.936ZM26.3416 10.048C25.9016 10.048 25.5736 9.932 25.3576 9.7C25.1496 9.468 25.0456 9.156 25.0456 8.764C25.0456 8.58 25.0816 8.368 25.1536 8.128C25.2256 7.888 25.3216 7.644 25.4416 7.396C25.5616 7.148 25.6936 6.928 25.8376 6.736C26.0696 6.424 26.3256 6.184 26.6056 6.016C26.8856 5.84 27.1696 5.752 27.4576 5.752C27.7616 5.752 27.9776 5.82 28.1056 5.956C28.2416 6.084 28.3096 6.236 28.3096 6.412C28.3096 6.58 28.2696 6.732 28.1896 6.868C28.1096 6.996 28.0176 7.1 27.9136 7.18C27.8176 7.26 27.7336 7.3 27.6616 7.3C27.5976 7.3 27.5416 7.276 27.4936 7.228C27.5576 7.148 27.6256 7.052 27.6976 6.94C27.7696 6.828 27.8216 6.72 27.8536 6.616C27.8856 6.52 27.9016 6.424 27.9016 6.328C27.9016 6.12 27.8056 6.016 27.6136 6.016C27.3816 6.016 27.1536 6.112 26.9296 6.304C26.7136 6.496 26.5136 6.744 26.3296 7.048C26.1536 7.344 26.0096 7.66 25.8976 7.996C25.7936 8.324 25.7416 8.628 25.7416 8.908C25.7416 9.164 25.7936 9.376 25.8976 9.544C26.0096 9.712 26.1896 9.796 26.4376 9.796C26.7656 9.796 27.0536 9.692 27.3016 9.484C27.5496 9.268 27.7696 9 27.9616 8.68C28.1536 8.352 28.3216 8.02 28.4656 7.684C28.4976 7.684 28.5296 7.692 28.5616 7.708C28.5936 7.716 28.6096 7.744 28.6096 7.792C28.4496 8.192 28.2616 8.564 28.0456 8.908C27.8296 9.252 27.5816 9.528 27.3016 9.736C27.0296 9.944 26.7096 10.048 26.3416 10.048ZM30.9459 3.664C30.8419 3.816 30.7259 4.008 30.5979 4.24C30.4699 4.472 30.3499 4.696 30.2379 4.912C30.1339 5.128 30.0539 5.292 29.9979 5.404H31.1019C31.1019 5.436 31.0859 5.488 31.0539 5.56C31.0299 5.632 30.9779 5.684 30.8979 5.716H29.8539C29.7579 5.932 29.6459 6.192 29.5179 6.496C29.3979 6.8 29.2779 7.116 29.1579 7.444C29.0459 7.772 28.9499 8.08 28.8699 8.368C28.7979 8.648 28.7619 8.876 28.7619 9.052C28.7619 9.292 28.7939 9.472 28.8579 9.592C28.9219 9.704 29.0379 9.76 29.2059 9.76C29.4219 9.76 29.6299 9.656 29.8299 9.448C30.0299 9.232 30.2179 8.964 30.3939 8.644C30.5779 8.324 30.7379 8.004 30.8739 7.684C30.9699 7.684 31.0179 7.72 31.0179 7.792C30.9299 8.008 30.8219 8.244 30.6939 8.5C30.5659 8.756 30.4179 9.004 30.2499 9.244C30.0899 9.476 29.9059 9.668 29.6979 9.82C29.4979 9.964 29.2739 10.036 29.0259 10.036C28.6899 10.036 28.4619 9.944 28.3419 9.76C28.2219 9.568 28.1619 9.324 28.1619 9.028C28.1619 8.812 28.2019 8.552 28.2819 8.248C28.3619 7.936 28.4579 7.616 28.5699 7.288C28.6899 6.96 28.8059 6.656 28.9179 6.376C29.0299 6.088 29.1179 5.868 29.1819 5.716H28.4139C28.4139 5.652 28.4419 5.584 28.4979 5.512C28.5539 5.44 28.6139 5.404 28.6779 5.404H29.3139C29.3779 5.276 29.4499 5.116 29.5299 4.924C29.6179 4.732 29.7339 4.52 29.8779 4.288C29.9979 4.096 30.1499 3.944 30.3339 3.832C30.5259 3.72 30.7299 3.664 30.9459 3.664ZM31.128 10.048C30.8 10.048 30.532 9.948 30.324 9.748C30.124 9.54 30.024 9.324 30.024 9.1C30.024 8.916 30.072 8.748 30.168 8.596C30.256 8.436 30.376 8.356 30.528 8.356L30.54 8.332C30.716 8.012 30.884 7.688 31.044 7.36C31.212 7.024 31.396 6.668 31.596 6.292C31.764 5.98 31.944 5.724 32.136 5.524C32.336 5.324 32.568 5.224 32.832 5.224C32.896 5.224 32.984 5.24 33.096 5.272C33.208 5.296 33.264 5.352 33.264 5.44C33.264 5.504 33.228 5.536 33.156 5.536C33.1 5.536 33.036 5.52 32.964 5.488C32.9 5.456 32.848 5.44 32.808 5.44C32.656 5.44 32.528 5.528 32.424 5.704C32.32 5.88 32.268 6.068 32.268 6.268C32.268 6.484 32.304 6.68 32.376 6.856C32.448 7.024 32.532 7.188 32.628 7.348C32.724 7.508 32.808 7.672 32.88 7.84C32.952 8 32.988 8.176 32.988 8.368C32.988 8.752 32.912 9.064 32.76 9.304C32.616 9.536 32.424 9.712 32.184 9.832H32.196C32.62 9.832 32.968 9.636 33.24 9.244C33.52 8.844 33.796 8.324 34.068 7.684C34.164 7.684 34.212 7.72 34.212 7.792C34.06 8.152 33.892 8.504 33.708 8.848C33.524 9.192 33.308 9.476 33.06 9.7C32.812 9.924 32.508 10.036 32.148 10.036C31.996 10.036 31.856 10.02 31.728 9.988C31.544 10.028 31.344 10.048 31.128 10.048ZM30.948 8.776C30.948 8.968 30.992 9.152 31.08 9.328C31.168 9.504 31.328 9.636 31.56 9.724C31.768 9.604 31.928 9.42 32.04 9.172C32.16 8.916 32.22 8.652 32.22 8.38C32.22 8.156 32.196 7.928 32.148 7.696C32.1 7.464 32.048 7.236 31.992 7.012C31.944 6.788 31.92 6.588 31.92 6.412C31.92 6.356 31.92 6.308 31.92 6.268C31.928 6.22 31.936 6.176 31.944 6.136C31.8 6.352 31.652 6.604 31.5 6.892C31.356 7.18 31.216 7.456 31.08 7.72C30.944 7.984 30.82 8.2 30.708 8.368C30.868 8.392 30.948 8.528 30.948 8.776ZM30.552 9.376C30.552 9.504 30.596 9.616 30.684 9.712C30.772 9.808 30.904 9.856 31.08 9.856C31.16 9.856 31.236 9.848 31.308 9.832C31.14 9.728 31.004 9.596 30.9 9.436C30.804 9.276 30.756 9.092 30.756 8.884C30.684 8.964 30.632 9.048 30.6 9.136C30.568 9.216 30.552 9.296 30.552 9.376Z" stroke="white" stroke-width="0.5" mask="url(#path-1-inside-1_8_2)"/>
</g>
<defs>
<clipPath id="clip0_8_2">
<rect width="35" height="14" fill="white"/>
</clipPath>
</defs>
</svg>
